<svg width="158" height="24" viewBox="0 0 158 24" fill="none" xmlns="http://www.w3.org/2000/svg">
<path d="M120.558 14.688H117.514V23.8H110.85V0H117.514V9.248H120.727L126.377 0H133.413L126.004 11.492L133.48 23.8H125.937L120.558 14.688Z" fill="#111E45"/>
<path d="M146.723 24C144.171 24 141.874 23.4945 139.831 22.4835C137.813 21.4506 136.223 20.022 135.063 18.1978C133.902 16.3736 133.322 14.3077 133.322 12C133.322 9.69231 133.902 7.62637 135.063 5.8022C136.223 3.97802 137.813 2.56044 139.831 1.54945C141.874 0.516483 144.171 0 146.723 0C148.951 0 150.958 0.373627 152.745 1.12088C154.532 1.86813 156.017 2.94506 157.201 4.35165L152.815 8.10989C151.237 6.30769 149.322 5.40659 147.072 5.40659C145.749 5.40659 144.565 5.68132 143.521 6.23077C142.5 6.78022 141.699 7.56044 141.119 8.57143C140.562 9.56044 140.284 10.7033 140.284 12C140.284 13.2967 140.562 14.4505 141.119 15.4615C141.699 16.4506 142.5 17.2198 143.521 17.7692C144.565 18.3187 145.749 18.5934 147.072 18.5934C149.322 18.5934 151.237 17.6923 152.815 15.8901L157.201 19.6484C156.017 21.0549 154.532 22.1319 152.745 22.8791C150.958 23.6264 148.951 24 146.723 24Z" fill="#111E45"/>
<path d="M17.5403 0C26.239 0 33.9382 2.71045 33.9382 11.9752C33.9382 21.24 26.266 23.9505 17.5403 23.9505H9.94922V0H17.5403ZM17.6754 5.05129H16.2436V18.9238H17.6754C22.2949 18.9238 27.2926 18.4064 27.2926 11.9999C27.2926 5.5441 22.2949 5.05129 17.6754 5.05129Z" fill="#111E45"/>
<path d="M43.9316 0H50.8203L60.9238 23.9751H54.0621L52.3872 19.6384H42.2026L40.5277 23.9751H33.8281L43.9316 0ZM44.1747 14.6118H50.4691L47.3354 6.40651L44.1747 14.6118Z" fill="#111E45"/>
<path d="M68.2667 5.05129H59.7031V0H83.1248V5.05129H74.5341V23.9751H68.2397V5.05129H68.2667Z" fill="#111E45"/>
<path d="M85.7695 0H106.247V5.05129H92.0639V9.1416H105.436V14.1929H92.0639V18.9238H106.247V23.9751H85.7695V0Z" fill="#111E45"/>
<path d="M6.7273 17.8647H0V24.0002H6.7273V17.8647Z" fill="#E6313F"/>
<path d="M6.7273 8.94434H0V15.0798H6.7273V8.94434Z" fill="#111E45"/>
<path d="M6.7273 0.0239258H0V6.15939H6.7273V0.0239258Z" fill="#111E45"/>
</svg>
