<?xml version="1.0" encoding="utf-8"?><svg xmlns="http://www.w3.org/2000/svg" xmlns:xlink="http://www.w3.org/1999/xlink"><symbol viewBox="0 0 20 20" id="apply" xmlns="http://www.w3.org/2000/svg"><path d="M18.59 3.621l-1.142-.919c-.562-.452-.89-.447-1.371.148l-8.3 10.242-3.862-3.209c-.533-.447-.866-.423-1.305.124l-.881 1.148c-.447.563-.39.882.139 1.324l5.504 4.553c.567.476.886.427 1.324-.106L18.734 4.993c.471-.567.443-.906-.144-1.372z"/></symbol><symbol viewBox="0 0 22 24" id="basket" xmlns="http://www.w3.org/2000/svg"><g clip-path="url(#ba)"><path d="M10.363 18.443a2.046 2.046 0 00-2.045 2.042 2.046 2.046 0 004.09 0 2.046 2.046 0 00-2.045-2.042zm6.134 0a2.046 2.046 0 00-2.045 2.042 2.046 2.046 0 004.089 0 2.046 2.046 0 00-2.044-2.042zm3.978-8.199L7.413 6.891a.614.614 0 00-.75.73L8.67 16.4h-.786L5.482 5.895a.613.613 0 00-.474-.464l-4.27-.882A.614.614 0 00.489 5.75l3.885.802L6.797 17.15a.613.613 0 00.598.477h12.07a.615.615 0 00.607-.53l.858-6.175a.613.613 0 00-.455-.678zm-8.14 3.91a.613.613 0 01-1.227 0v-2.696a.613.613 0 011.227 0v2.696zm2.625 0a.613.613 0 01-1.227 0v-1.88a.613.613 0 011.227 0v1.88zm2.625 0a.613.613 0 01-1.227 0v-1.226a.613.613 0 011.227 0v1.226z"/></g><path fill-rule="evenodd" clip-rule="evenodd" d="M16.268 4.568a2.996 2.996 0 00-1.693-.523c-.627 0-1.21.193-1.693.523-.28-.843-.492-1.752-.492-2.383C12.39.98 13.37 0 14.575 0s2.185.98 2.185 2.185c0 .631-.212 1.54-.492 2.383zm-4.722 2.274l.024.006v-.011l-.024.005zm4.972 1.217c-1.333-.33-2.766-.681-4.129-1.013a2.185 2.185 0 114.129 1.013zm4.436 1.103c-.866-.217-2.155-.538-3.618-.9a2.995 2.995 0 00.243-1.425c.87.18 1.762.45 2.308.765.596.344.969.928 1.067 1.56zM9.869 6.439c-.36-.086-.706-.167-1.03-.243a2.19 2.19 0 01-.376-2.667 2.188 2.188 0 013.147-.7c.098.738.338 1.599.61 2.353a3.01 3.01 0 00-.449.774c-.628.113-1.305.278-1.902.483zm10.124.075a3.43 3.43 0 01-.217.114c-.696-.295-1.587-.526-2.397-.672a3.01 3.01 0 00-.449-.774c.262-.727.494-1.553.599-2.273.095-.067.189-.128.278-.18a2.188 2.188 0 012.986.8 2.188 2.188 0 01-.8 2.985z"/><defs><clipPath id="ba"><path transform="translate(0 3.064)" d="M0 0h20.936v20.936H0z"/></clipPath></defs></symbol><symbol viewBox="0 0 50 50" id="call" xmlns="http://www.w3.org/2000/svg"><path d="M39.5 24.834c0 .666.5 1.333 1.333 1.333.834 0 1.334-.5 1.334-1.334 0-9.166-7.5-16.666-16.667-16.666-.667 0-1.333.5-1.333 1.333 0 .834.5 1.334 1.333 1.334 7.667-.167 14 6.166 14 14zm-15.333-8.667c0 .666.5 1.333 1.333 1.333 4 0 7.167 3.167 7.167 7.167 0 .666.5 1.333 1.333 1.333s1.333-.5 1.333-1.333C35.333 19.333 31 15 25.667 15c-1 0-1.5.5-1.5 1.167zM25.333.333c-.666 0-1.333.5-1.333 1.334C24 2.5 24.5 3 25.333 3c12 0 21.834 9.834 21.834 21.834 0 .666.5 1.333 1.333 1.333s1.333-.5 1.333-1.334c-.166-13.5-11-24.5-24.5-24.5zm7 29.167a1.273 1.273 0 00-.833-.333 1.27 1.27 0 00-.833.333L28 32.167c-1 1-2.667 1-3.667 0L18.167 26.5c-1-1-1-2.666 0-3.666l3-3c.5-.5.5-1.334 0-1.834L8.833 5.834A1.273 1.273 0 008 5.5c-.333 0-.667.167-.833.333-.167.167-4 4-4.834 5C0 13.168-.333 18 1.333 22.168c3.667 9.166 15.834 20.333 26 26.5.834.5 2.834 1 4.834 1 1.833 0 4.5-.334 6.833-2.334 2.167-1.833 4.667-4.5 4.833-4.666.5-.5.5-1.334 0-1.667l-11.5-11.5zm5 15.834C35.667 46.834 33.667 47 32.167 47c-1.834 0-3.334-.5-3.5-.666-11.5-6.834-22-17.334-25-25.167-1.334-3.5-.834-7.334.333-8.667l4-4 10.333 10.334L16.167 21c-2 2-2 5.167 0 7.167l6.166 5.666c1.834 1.834 5.167 1.834 7.167 0L31.333 32 41 41.667c-.833 1.166-2.333 2.666-3.667 3.666z"/></symbol><symbol viewBox="0 0 344.96 344.96" id="check" xmlns="http://www.w3.org/2000/svg"><g data-name="Слой 2"><path class="dcls-1" d="M321.85 86.24l-40-23.11-23.1-40H212.5L172.48 0l-40 23.11H86.24l-23.11 40-40 23.1v46.21L0 172.48l23.11 40v46.21l40 23.11 23.11 40h46.21l40 23.1 40-23.11h46.21l23.11-40 40-23.11V212.5l23.11-40-23.11-40V86.24zM156.91 243.07a16.79 16.79 0 01-23.34 0l-50.45-50.44a16.19 16.19 0 010-22.89l13.35-13.35a16.19 16.19 0 0122.89 0l25.87 25.87 80.34-80.35a16.19 16.19 0 0122.89 0l13.35 13.35a16.19 16.19 0 010 22.89z" data-name="Capa 1"/></g></symbol><symbol viewBox="0 0 24 24" id="chevron-right" xmlns="http://www.w3.org/2000/svg"><path d="M8.4 5.719L9.914 4.2l7.486 7.5-7.486 7.5L8.4 17.681l5.967-5.981L8.4 5.719z"/></symbol><symbol viewBox="0 0 20 20" id="cross" xmlns="http://www.w3.org/2000/svg"><path fill-rule="evenodd" clip-rule="evenodd" d="M10 12.661l4.933 5.05c.495.51.816.515 1.32 0l.99-1.014c.485-.496.518-.822 0-1.352L12.02 10l5.222-5.345c.49-.503.499-.842 0-1.353l-.99-1.012c-.512-.526-.83-.502-1.32 0L10 7.34 5.068 2.29c-.49-.501-.807-.526-1.32 0l-.99 1.013c-.499.51-.49.85 0 1.352L7.98 10l-5.22 5.345c-.518.53-.49.856 0 1.352l.99 1.014c.499.515.82.51 1.32 0L10 12.66z"/></symbol><symbol viewBox="0 0 24 24" id="fb" xmlns="http://www.w3.org/2000/svg"><path d="M13.397 20.997v-8.196h2.765l.411-3.209h-3.176V7.548c0-.926.258-1.56 1.587-1.56h1.684v-2.86A22.108 22.108 0 0014.201 3c-2.444 0-4.122 1.492-4.122 4.231v2.355H7.332v3.21h2.753v8.201h3.312z"/></symbol><symbol viewBox="0 0 24 24" id="instagram" xmlns="http://www.w3.org/2000/svg"><path d="M11.999 7.377a4.624 4.624 0 100 9.248 4.624 4.624 0 000-9.248zm0 7.627a3.004 3.004 0 110-6.008 3.004 3.004 0 010 6.008zm4.807-6.719a1.078 1.078 0 100-2.156 1.078 1.078 0 000 2.156z"/><path d="M20.533 6.11A4.605 4.605 0 0017.9 3.48a6.607 6.607 0 00-2.186-.42c-.963-.042-1.268-.054-3.71-.054s-2.755 0-3.71.054a6.554 6.554 0 00-2.184.42 4.6 4.6 0 00-2.633 2.63 6.585 6.585 0 00-.419 2.186c-.043.962-.056 1.267-.056 3.71 0 2.442 0 2.753.056 3.71.015.748.156 1.486.419 2.187a4.61 4.61 0 002.634 2.632 6.583 6.583 0 002.185.45c.963.042 1.268.055 3.71.055s2.755 0 3.71-.055a6.616 6.616 0 002.186-.42 4.613 4.613 0 002.633-2.632c.263-.7.404-1.438.419-2.186.043-.962.056-1.267.056-3.71s0-2.753-.056-3.71a6.583 6.583 0 00-.421-2.217zm-1.218 9.533a5.046 5.046 0 01-.311 1.688 2.987 2.987 0 01-1.712 1.71c-.535.2-1.1.305-1.67.312-.95.044-1.218.055-3.654.055-2.438 0-2.687 0-3.655-.055a4.961 4.961 0 01-1.67-.311 2.984 2.984 0 01-1.718-1.711 5.08 5.08 0 01-.311-1.67c-.043-.95-.053-1.217-.053-3.653 0-2.437 0-2.686.053-3.655a5.038 5.038 0 01.311-1.687c.305-.79.93-1.41 1.719-1.712a5.01 5.01 0 011.669-.311c.95-.043 1.218-.055 3.655-.055s2.687 0 3.654.055a4.96 4.96 0 011.67.31 2.99 2.99 0 011.712 1.713 5.06 5.06 0 01.311 1.669c.043.95.054 1.218.054 3.655 0 2.436 0 2.698-.043 3.654h-.011v-.001z"/></symbol><symbol viewBox="0 0 24 24" id="mobile" xmlns="http://www.w3.org/2000/svg"><path fill-rule="evenodd" clip-rule="evenodd" d="M4.25 3A2.75 2.75 0 017 .25h10A2.75 2.75 0 0119.75 3v18A2.75 2.75 0 0117 23.75H7A2.75 2.75 0 014.25 21V3zM7 1.75c-.69 0-1.25.56-1.25 1.25v18c0 .69.56 1.25 1.25 1.25h10c.69 0 1.25-.56 1.25-1.25V3c0-.69-.56-1.25-1.25-1.25H7z"/><path fill-rule="evenodd" clip-rule="evenodd" d="M7.362.606A.75.75 0 018 .25h8a.75.75 0 01.67 1.085l-.723 1.448a1.75 1.75 0 01-1.565.967H9.618a1.75 1.75 0 01-1.565-.967l-.724-1.448a.75.75 0 01.033-.73zM9.214 1.75l.18.362a.25.25 0 00.224.138h4.764a.25.25 0 00.224-.138l.18-.362H9.215zM9.25 20a.75.75 0 01.75-.75h4a.75.75 0 010 1.5h-4a.75.75 0 01-.75-.75z"/></symbol><symbol viewBox="0 0 20 20" id="phone" xmlns="http://www.w3.org/2000/svg"><path d="M16.05 8.332c.02-2.35-1.983-4.504-4.463-4.804a1.765 1.765 0 01-.16-.026 2.281 2.281 0 00-.378-.041c-.507 0-.642.357-.678.57-.036.206 0 .382.098.517.171.228.466.269.705.3.067.01.134.02.191.031 2.226.497 2.976 1.279 3.344 3.489.01.052.015.119.015.191.016.264.052.813.642.813a1.7 1.7 0 00.155-.01c.549-.083.533-.585.523-.829 0-.067-.005-.134 0-.176.005-.005.005-.015.005-.025z"/><path d="M10.91 2.669l.18.015c3.655.565 5.337 2.299 5.808 5.984.01.062.01.14.01.222.006.29.016.886.658.901h.02c.203 0 .363-.062.477-.181.202-.207.186-.523.176-.771-.005-.062-.005-.12-.005-.171.046-3.773-3.22-7.19-6.988-7.319h-.093c-.036 0-.083-.005-.135-.005a2.152 2.152 0 00-.196-.01c-.6 0-.715.424-.73.683-.026.59.543.631.818.652zm5.807 10.766a4.011 4.011 0 01-.233-.181c-.398-.32-.823-.616-1.237-.906l-.254-.176c-.527-.367-.998-.549-1.449-.549-.6 0-1.128.332-1.563.99-.191.289-.424.434-.714.434a1.38 1.38 0 01-.575-.145c-1.697-.771-2.914-1.951-3.607-3.514-.337-.756-.228-1.248.362-1.646.336-.228.957-.653.916-1.465-.052-.922-2.08-3.69-2.94-4.006a1.671 1.671 0 00-1.133-.006c-.984.332-1.693.911-2.045 1.683-.342.74-.326 1.614.047 2.52 1.066 2.624 2.572 4.907 4.461 6.796 1.853 1.848 4.13 3.36 6.77 4.498.239.104.487.16.668.197l.155.036c.021.005.042.01.068.01h.02c1.243 0 2.733-1.133 3.189-2.427.42-1.134-.316-1.693-.906-2.143zm-5.259-7.769c-.212.005-.657.015-.813.465-.072.213-.062.394.026.544.13.223.383.29.616.326.834.135 1.263.595 1.346 1.45.041.398.31.677.652.677.026 0 .052 0 .078-.005.414-.052.616-.352.595-.906.005-.574-.295-1.226-.807-1.75-.513-.522-1.129-.817-1.693-.801z"/></symbol><symbol viewBox="0 0 16 16" id="telegram" xmlns="http://www.w3.org/2000/svg"><path d="M14.629 3.698l-2.012 9.618c-.152.679-.548.848-1.11.528l-3.066-2.29-1.48 1.442c-.163.166-.3.305-.616.305l.22-3.165 5.683-5.204c.247-.223-.054-.347-.384-.123L4.839 9.29l-3.024-.959c-.658-.208-.67-.667.137-.986L13.78 2.727c.548-.208 1.027.124.849.971z"/></symbol><symbol viewBox="0 0 24 24" id="viber" xmlns="http://www.w3.org/2000/svg"><path d="M17.584 13.213c-.043-.021-1.619-.796-1.895-.897a1.08 1.08 0 00-.366-.08c-.212 0-.393.107-.53.314-.16.233-.632.79-.78.955-.022.021-.049.048-.064.048a4.37 4.37 0 01-.33-.133c-1.687-.732-2.971-2.5-3.147-2.797-.026-.042-.026-.063-.026-.063.005-.022.064-.08.09-.112a5.39 5.39 0 00.27-.302c.043-.053.086-.101.128-.149a1.53 1.53 0 00.255-.409l.037-.069a.724.724 0 00-.021-.69c-.037-.074-.7-1.677-.775-1.846-.17-.41-.393-.595-.706-.595-.026 0 0 0-.122.005-.149.006-.955.112-1.31.335-.378.239-1.02.998-1.02 2.33 0 1.2.764 2.335 1.088 2.765.01.01.021.031.043.063 1.252 1.831 2.818 3.19 4.4 3.822 1.522.61 2.244.679 2.658.679.175 0 .313-.016.43-.027l.08-.005c.525-.048 1.682-.648 1.947-1.38.207-.578.26-1.205.122-1.433-.09-.154-.254-.233-.456-.329z"/><path d="M12.59.8C6.74.8 1.98 5.523 1.98 11.33c0 1.878.505 3.714 1.455 5.322l-1.82 5.376a.284.284 0 00.063.287.29.29 0 00.287.074l5.604-1.783a10.712 10.712 0 005.02 1.252c5.849 0 10.61-4.723 10.61-10.529S18.438.8 12.588.8zm0 18.867a8.399 8.399 0 01-4.623-1.38.276.276 0 00-.154-.048.465.465 0 00-.085.01l-2.807.892.907-2.675a.274.274 0 00-.037-.254 8.224 8.224 0 01-1.597-4.888c0-4.596 3.768-8.338 8.4-8.338 4.634 0 8.402 3.742 8.402 8.338-.005 4.601-3.773 8.343-8.406 8.343z"/></symbol><symbol viewBox="0 0 24 24" id="vk" xmlns="http://www.w3.org/2000/svg"><path d="M21.579 6.855c.14-.465 0-.806-.662-.806h-2.193c-.558 0-.813.295-.953.619 0 0-1.115 2.719-2.695 4.482-.51.513-.743.675-1.021.675-.139 0-.341-.162-.341-.627V6.855c0-.558-.161-.806-.626-.806H9.642c-.348 0-.558.258-.558.504 0 .528.79.65.871 2.138v3.228c0 .707-.127.836-.407.836-.743 0-2.551-2.73-3.624-5.853-.209-.607-.42-.852-.98-.852H2.752c-.627 0-.752.295-.752.619 0 .582.743 3.462 3.461 7.27 1.812 2.602 4.363 4.012 6.687 4.012 1.393 0 1.565-.313 1.565-.853v-1.966c0-.626.133-.752.574-.752.324 0 .882.164 2.183 1.417 1.486 1.486 1.732 2.153 2.567 2.153h2.192c.626 0 .939-.313.759-.931-.197-.615-.907-1.51-1.849-2.57-.512-.603-1.277-1.253-1.51-1.578-.325-.42-.231-.604 0-.976.001 0 2.672-3.761 2.95-5.04z"/></symbol><symbol viewBox="0 0 16 16" id="whatsapp" xmlns="http://www.w3.org/2000/svg"><path fill-rule="evenodd" clip-rule="evenodd" d="M12.269 3.755A5.947 5.947 0 008.035 2 5.994 5.994 0 002.05 7.985a5.98 5.98 0 00.799 2.992L2 14.077l3.173-.832c.877.477 1.86.728 2.86.728h.002a5.993 5.993 0 005.533-8.276 5.953 5.953 0 00-1.3-1.942zm-4.234 9.208h-.002c-.89 0-1.765-.24-2.532-.694l-.181-.108-1.883.494.502-1.835-.118-.188a4.965 4.965 0 01-.76-2.647 4.982 4.982 0 016.88-4.597c.604.25 1.152.618 1.613 1.081a4.946 4.946 0 011.455 3.52 4.982 4.982 0 01-4.974 4.974zm2.729-3.726c-.15-.075-.885-.436-1.022-.486-.137-.05-.236-.075-.336.074-.1.15-.387.486-.474.586-.087.1-.175.112-.324.038-.15-.075-.631-.233-1.203-.742a4.505 4.505 0 01-.832-1.036c-.087-.15-.009-.231.066-.306.068-.066.15-.174.224-.262.075-.087.1-.149.15-.249.05-.1.025-.187-.013-.262-.037-.075-.337-.811-.461-1.11-.121-.29-.244-.252-.336-.256a6.418 6.418 0 00-.286-.005.55.55 0 00-.4.186c-.137.15-.523.512-.523 1.248s.536 1.447.61 1.547c.075.1 1.055 1.61 2.555 2.258.358.154.636.246.853.315.358.114.684.098.942.06.287-.043.885-.362 1.01-.711.124-.35.124-.649.087-.711-.038-.063-.138-.101-.287-.176z"/></symbol></svg>