<svg width="50" height="50" viewBox="0 0 50 50" fill="none" xmlns="http://www.w3.org/2000/svg">
<path d="M47.6104 2.63964C47.1063 2.04173 46.3375 1.76256 45.4209 1.91464C45.2604 1.94173 41.4771 2.57298 38.6563 4.00631L37.8146 4.43548C37.4646 4.64381 37.2125 4.95006 37.0167 5.29589C36.7813 5.20214 36.5104 5.20214 36.2771 5.34589C30.4979 8.87714 27.1271 12.4334 26.9896 12.5834C26.1771 13.4459 24.9875 14.9646 24.3354 15.9667L23.55 17.1771L16.2229 16.7959C14.8813 16.7126 13.0104 17.4271 12.0354 18.4001L2.66878 27.7251C2.2417 28.148 1.5292 28.8584 2.07711 29.5459C2.6292 30.2417 3.47711 29.7001 3.98545 29.3813L5.70003 28.3021C6.59378 27.7376 8.21253 27.0688 9.3417 26.8146C10.1896 26.623 11.4667 26.9917 12.0771 27.6021L14.8125 30.3271L13.9729 31.5834C13.6146 32.123 12.5104 33.9521 13.3959 34.8501L14.9938 36.4605C15.2417 36.7084 15.5604 36.8042 15.9063 36.8042C16.8042 36.8042 17.8709 36.1605 18.2604 35.9021L19.5063 35.0792L22.3667 37.9313C22.9771 38.5396 23.3417 39.8105 23.1167 40.7605C22.8771 41.7855 22.1979 43.4042 21.6334 44.2896L20.5375 46.0126C20.2146 46.5188 19.675 47.3667 20.3625 47.9188C20.5417 48.0626 20.7209 48.1209 20.8979 48.1209C21.4 48.1209 21.8709 47.6501 22.1854 47.3376L31.5521 38.0084C32.525 37.0376 33.2396 35.2001 33.1792 33.8292L32.8417 26.2355L33.8334 25.5646C34.8146 24.9021 36.325 23.7251 37.2021 22.9438C37.3563 22.8084 41.0104 19.5251 44.5854 13.7438C44.725 13.5188 44.7313 13.2584 44.6479 13.0271C45 12.823 45.3021 12.5334 45.525 12.1563L45.9334 11.3646C47.3917 8.53964 48.0542 4.74381 48.0813 4.58339C48.2084 3.84589 48.0417 3.15214 47.6104 2.63964ZM13.2521 26.4209C12.2417 25.4146 10.3646 24.8792 8.8667 25.2105C8.29586 25.3417 7.60003 25.5709 6.91253 25.8501L13.2084 19.5792C13.8563 18.9355 15.25 18.4042 16.1354 18.4584L22.5 18.7917L22.2188 19.2251V19.2271L15.7563 28.9105L13.2521 26.4209ZM31.5125 33.9084C31.5521 34.8209 31.0209 36.1896 30.3729 36.8334L24.0813 43.1001C24.3709 42.3938 24.6146 41.6646 24.7646 41.0355C25.0896 39.6438 24.5521 37.7646 23.5417 36.7542L20.925 34.1438L31.0396 27.4688C31.0479 27.4626 31.0521 27.4521 31.0625 27.4459L31.2209 27.3376L31.5125 33.9084ZM36.0938 21.7063C35.2625 22.4459 33.8292 23.5626 32.9 24.1917L29.8167 26.2813C29.8167 26.2813 29.8167 26.2834 29.8146 26.2834L17.3438 34.5126C16.7667 34.8938 16.2625 35.0771 16.0167 35.1251L14.7417 33.8376C14.7896 33.5917 14.9771 33.0876 15.3625 32.5063L23.6125 20.1396C23.6125 20.1376 23.6125 20.1376 23.6146 20.1355C23.6167 20.1334 23.6167 20.1334 23.6188 20.1313L25.7313 16.8751C26.3271 15.9584 27.4584 14.5167 28.2021 13.7271C28.2334 13.6896 31.4125 10.3626 36.7209 7.03964C36.8 7.45839 36.9646 7.87089 37.225 8.24173C37.2563 8.28548 38.0063 9.34798 39.3063 10.6646C40.6063 11.9834 41.6563 12.7417 41.7 12.7751C42.0729 13.0438 42.4896 13.1876 42.9146 13.2667C39.5521 18.5751 36.1271 21.673 36.0938 21.7063ZM46.4396 4.31048C46.4334 4.34798 45.7917 8.01256 44.4521 10.6063L44.0667 11.3542C43.8959 11.6417 43.5938 11.6834 43.4292 11.6834C43.1771 11.6834 42.9084 11.5896 42.6709 11.4188C42.6604 11.4105 41.6834 10.7021 40.4896 9.48964C39.2959 8.28131 38.5938 7.28964 38.5875 7.28131C38.3709 6.97298 38.2834 6.62089 38.35 6.31673C38.3938 6.11256 38.4979 5.96256 38.6167 5.89173L39.4104 5.48756C41.9979 4.17506 45.6542 3.56048 45.8813 3.53756C46.0209 3.53756 46.2146 3.56881 46.3334 3.70839C46.4459 3.84381 46.4834 4.05423 46.4396 4.31048Z" fill="#E5313F"/>
<path d="M9.88348 35.1313C9.37723 35.1313 8.44389 35.2001 7.87514 35.673C5.18973 37.898 2.46472 44.973 2.35222 45.273C1.99806 46.2001 2.20014 46.7959 2.43139 47.1334C2.71264 47.5418 3.17098 47.7688 3.72514 47.7688C4.00639 47.7688 4.30848 47.7105 4.62931 47.5938C6.23556 47.0147 14.2751 43.9605 14.7918 40.7772C15.071 38.7251 14.4022 37.4605 13.7918 36.7605C12.8981 35.7397 11.4376 35.1313 9.88348 35.1313ZM13.1397 40.5293C12.8772 42.1522 7.67098 44.7209 4.06056 46.0272C3.96889 46.0605 3.89598 46.0772 3.83973 46.0876C3.85223 46.0313 3.87306 45.9563 3.90639 45.8688C4.64389 43.9376 6.98764 38.5751 8.93139 36.9626C9.00848 36.9105 9.34389 36.8001 9.88348 36.8001C10.2876 36.8001 11.6772 36.8751 12.5335 37.8584C13.0918 38.4959 13.2939 39.4001 13.1397 40.5293Z" fill="#E5313F"/>
<path d="M29.6105 19.1126L23.5001 25.2231C23.1751 25.5481 23.1751 26.0772 23.5001 26.4022C23.6626 26.5647 23.8751 26.646 24.0897 26.646C24.3043 26.646 24.5168 26.5647 24.6793 26.4022L30.7897 20.2918C31.1147 19.9668 31.1147 19.4376 30.7897 19.1126C30.4647 18.7876 29.9376 18.7876 29.6105 19.1126Z" fill="#E5313F"/>
</svg>
