<svg width="50" height="50" viewBox="0 0 50 50" fill="none" xmlns="http://www.w3.org/2000/svg">
<path d="M44.7917 29.3542V23.9584C44.7917 13.0417 35.9167 4.16675 25 4.16675C14.0833 4.16675 5.20833 13.0417 5.20833 23.9584V29.3542C4.77083 29.5105 4.375 29.7501 4.05208 30.073C3.45833 30.6563 3.125 31.448 3.125 32.2917C3.125 34.0105 4.53125 35.4167 6.25 35.4167V44.7918C6.25 45.3647 6.71875 45.8334 7.29167 45.8334H11.4583C12.0312 45.8334 12.5 45.3647 12.5 44.7918V35.4167H16.4375C16.5 35.4167 16.5521 35.3959 16.6042 35.3855C16.6667 35.3751 16.7292 35.3751 16.7917 35.3542C18.4583 34.7501 21.5938 34.3751 25 34.3751C28.4062 34.3751 31.5417 34.7501 33.2083 35.3542C33.3229 35.3959 33.4479 35.4167 33.5625 35.4167H37.5V44.7918C37.5 45.3647 37.9688 45.8334 38.5417 45.8334H42.7083C43.2812 45.8334 43.75 45.3647 43.75 44.7918V35.4167C44.5938 35.4167 45.3854 35.0834 45.9479 34.5105C46.5417 33.9272 46.875 33.1355 46.875 32.2917C46.875 30.9376 46 29.7917 44.7917 29.3542ZM7.29167 23.9584C7.29167 14.198 15.2396 6.25008 25 6.25008C34.7604 6.25008 42.7083 14.198 42.7083 23.9584V29.1667H7.29167V23.9584ZM10.4167 43.7501H8.33333V35.4167H10.4167V43.7501ZM41.6667 43.7501H39.5833V35.4167H41.6667V43.7501ZM44.4687 33.0313C44.2812 33.2292 44.0312 33.3334 43.75 33.3334H42.7083H38.5417H33.7187C31.7917 32.6772 28.5625 32.2917 25 32.2917C21.4375 32.2917 18.2083 32.6772 16.2812 33.3334H11.4583H7.29167H6.25C5.67708 33.3334 5.20833 32.8647 5.20833 32.2917C5.20833 32.0105 5.3125 31.7605 5.53125 31.5522C5.71875 31.3543 5.96875 31.2501 6.25 31.2501H43.75C44.3229 31.2501 44.7917 31.7188 44.7917 32.2917C44.7917 32.573 44.6875 32.823 44.4687 33.0313Z" fill="#E5313F"/>
<path d="M31.4896 15.0312L27.6458 14.4687L25.9271 10.9895C25.5729 10.2812 24.4062 10.2812 24.0625 10.9895L22.3437 14.4687L18.5 15.0312C18.1042 15.0833 17.7812 15.3645 17.6562 15.7395C17.5312 16.1145 17.6354 16.5312 17.9167 16.8124L20.6979 19.5208L20.0417 23.3437C19.9792 23.7395 20.1354 24.1249 20.4583 24.3645C20.7812 24.5937 21.2083 24.6249 21.5521 24.4478L24.9896 22.6458L28.4271 24.4478C28.5833 24.5312 28.75 24.5624 28.9167 24.5624C29.1354 24.5624 29.3437 24.4999 29.5312 24.3645C29.8542 24.1353 30.0104 23.7395 29.9479 23.3437L29.2917 19.5208L32.0729 16.8124C32.3542 16.5312 32.4583 16.1249 32.3333 15.7395C32.2083 15.3645 31.8854 15.0937 31.4896 15.0312ZM27.4479 18.4166C27.1979 18.6562 27.0937 18.9999 27.1458 19.3437L27.5417 21.6249L25.4896 20.5416C25.3333 20.4583 25.1667 20.427 25 20.427C24.8333 20.427 24.6667 20.4687 24.5104 20.5416L22.4583 21.6249L22.8542 19.3437C22.9167 19.0103 22.8021 18.6562 22.5521 18.4166L20.8958 16.802L23.1875 16.4687C23.5312 16.4166 23.8229 16.2083 23.9687 15.8958L24.9896 13.8124L26.0104 15.8958C26.1667 16.2083 26.4583 16.4166 26.7917 16.4687L29.0833 16.802L27.4479 18.4166Z" fill="#E5313F"/>
</svg>
