<svg width="50" height="50" viewBox="0 0 50 50" fill="none" xmlns="http://www.w3.org/2000/svg">
<path d="M24.7343 27.0775C26.675 27.0775 28.2541 25.4986 28.2541 23.5579C28.2541 21.6172 26.675 20.0383 24.7343 20.0383C22.7935 20.0383 21.2148 21.6172 21.2148 23.5579C21.2148 25.4986 22.7935 27.0775 24.7343 27.0775ZM24.7343 21.7481C25.7324 21.7481 26.5444 22.5599 26.5444 23.5579C26.5444 24.5559 25.7324 25.3679 24.7343 25.3679C23.7363 25.3679 22.9245 24.5559 22.9245 23.5579C22.9244 22.5599 23.7363 21.7481 24.7343 21.7481Z" fill="#E5313F"/>
<path d="M38.7091 23.5919C41.6842 21.07 43.9892 18.5004 45.0438 16.2336C44.7786 16.2874 44.5041 16.3158 44.2231 16.3158C43.8499 16.3158 43.4884 16.2652 43.144 16.1718C42.5674 17.1754 41.6955 18.3109 40.5547 19.5197C39.6283 20.5011 38.5593 21.4988 37.3725 22.495C35.8984 21.3262 34.279 20.1685 32.5502 19.0495C32.4288 17.162 32.2323 15.3018 31.9624 13.5281C35.0891 12.4438 37.911 11.8254 40.1132 11.78C40.1738 11.1602 40.3721 10.5806 40.677 10.0713C40.5761 10.069 40.4761 10.0659 40.3724 10.0659C38.0304 10.0659 35.0124 10.694 31.6756 11.8273C30.4418 5.17869 28.1105 0.123047 24.7906 0.123047C21.4706 0.123047 19.1392 5.17866 17.9057 11.8273C14.5686 10.694 11.5507 10.0659 9.20878 10.0659C9.19837 10.0659 9.18867 10.0664 9.17823 10.0664C9.48598 10.5791 9.68559 11.1636 9.74559 11.7883C11.905 11.8774 14.622 12.4889 17.6186 13.5281C17.3487 15.3018 17.1522 17.162 17.0307 19.0497C15.302 20.1687 13.6827 21.3262 12.2086 22.495C11.0219 21.4989 9.95284 20.501 9.02648 19.5196C7.90787 18.3346 7.04753 17.2196 6.47087 16.2306C6.20067 16.2864 5.92106 16.3158 5.63465 16.3158C5.2417 16.3158 4.86184 16.2593 4.50162 16.1564C5.53926 18.442 7.86303 21.0415 10.8721 23.5919C9.72742 24.5652 8.69026 25.5403 7.78303 26.5017C4.3844 30.1026 3.1897 33.0759 4.32767 35.1003C5.08437 36.4463 6.72645 37.1288 9.2084 37.1288C11.5505 37.1288 14.5684 36.5008 17.9055 35.3673C18.5873 39.0419 19.6046 42.2288 20.9387 44.3455C21.1896 43.7628 21.5712 43.2494 22.0458 42.8411C21.5359 41.9022 21.0523 40.7229 20.6204 39.3374C20.1906 37.9593 19.825 36.4293 19.527 34.7855C21.2314 34.1434 23.0002 33.3816 24.7906 32.5144C26.581 33.3816 28.3496 34.1434 30.054 34.7854C29.756 36.4292 29.3903 37.9593 28.9606 39.3374C28.5187 40.7553 28.0225 41.9582 27.4993 42.9078C27.9672 43.3302 28.3376 43.8585 28.574 44.4541C29.9419 42.3386 30.982 39.1047 31.6756 35.3672C35.0126 36.5008 38.0307 37.1288 40.3729 37.1288C42.8545 37.1288 44.4968 36.4462 45.2534 35.1002C46.3915 33.0759 45.1968 30.1026 41.7981 26.5017C40.8908 25.5403 39.8536 24.5652 38.7091 23.5919ZM36.0102 23.5972C34.9615 24.4165 33.8384 25.2298 32.6546 26.0275C32.6824 25.2168 32.6968 24.4054 32.6968 23.5975C32.6968 22.7893 32.6824 21.9777 32.6546 21.1669C33.8385 21.9646 34.9615 22.778 36.0102 23.5972ZM18.5938 23.5975C18.5938 22.3881 18.6241 21.1943 18.6823 20.0237C19.674 19.3995 20.7 18.7883 21.754 18.1957C22.7673 17.626 23.782 17.0887 24.7907 16.5842C25.7992 17.0887 26.814 17.626 27.8271 18.1957C28.8814 18.7882 29.9071 19.3995 30.8988 20.0236C30.9571 21.1941 30.9872 22.388 30.9872 23.5975C30.9872 24.8067 30.9571 26.0004 30.8988 27.1708C29.907 27.795 28.8811 28.4064 27.8269 28.999C26.8137 29.5685 25.7991 30.1059 24.7907 30.6104C23.7821 30.1059 22.7673 29.5685 21.7542 28.9989C20.7 28.4062 19.6741 27.7949 18.6823 27.1707C18.6241 26.0004 18.5938 24.8066 18.5938 23.5975ZM30.7623 17.9302C30.0763 17.5145 29.3768 17.1056 28.6647 16.7053C28.0187 16.3422 27.3715 15.9919 26.725 15.6539C27.9512 15.0882 29.1593 14.5765 30.3345 14.1241C30.513 15.3455 30.656 16.6188 30.7623 17.9302ZM20.6205 7.85733C21.7966 4.08491 23.3553 1.83266 24.7906 1.83266C26.2257 1.83266 27.7846 4.08491 28.9606 7.85733C29.3903 9.23558 29.756 10.7655 30.0539 12.4091C28.3496 13.0511 26.5809 13.8129 24.7906 14.6803C23.0002 13.8129 21.2316 13.0511 19.527 12.4091C19.8252 10.7655 20.1906 9.23555 20.6205 7.85733ZM19.2465 14.124C20.4217 14.5764 21.6298 15.0882 22.8561 15.6539C22.2096 15.9919 21.5625 16.3422 20.9164 16.7054C20.2043 17.1056 19.5046 17.5145 18.8186 17.9303C18.925 16.6188 19.068 15.3455 19.2465 14.124ZM16.9266 21.1671C16.8987 21.9778 16.8841 22.7893 16.8841 23.5975C16.8841 24.4054 16.8987 25.2168 16.9265 26.0274C15.7426 25.2298 14.6198 24.4164 13.571 23.5974C14.6198 22.7781 15.7426 21.9647 16.9266 21.1671ZM9.20842 35.4192C7.44126 35.4192 6.23717 35.0083 5.81781 34.2625C5.1147 33.0115 6.31404 30.549 9.02637 27.6751C9.95456 26.6913 11.0265 25.6913 12.2164 24.6928C13.7107 25.8758 15.3359 27.0361 17.0303 28.1372C17.1518 30.0274 17.3483 31.8903 17.6187 33.6667C14.3685 34.7936 11.4459 35.4192 9.20842 35.4192ZM19.2465 33.0705C19.0679 31.8482 18.9248 30.574 18.8183 29.2614C19.5115 29.6829 20.212 30.0931 20.9165 30.4891C21.5624 30.8522 22.2097 31.2025 22.8563 31.5406C21.63 32.1063 20.4217 32.6182 19.2465 33.0705ZM26.725 31.5406C27.3715 31.2025 28.0187 30.8523 28.6645 30.4894C29.369 30.0932 30.0694 29.683 30.7627 29.2615C30.6563 30.574 30.5133 31.8482 30.3345 33.0703C29.1593 32.6182 27.9512 32.1063 26.725 31.5406ZM43.7633 34.2625C43.3439 35.0083 42.1398 35.4192 40.3729 35.4192C38.1352 35.4192 35.2126 34.7936 31.9624 33.6667C32.2327 31.8903 32.4295 30.0274 32.5508 28.1371C34.2452 27.0362 35.8705 25.8759 37.365 24.6928C38.5546 25.6913 39.6265 26.6912 40.555 27.6751C43.267 30.549 44.4665 33.0115 43.7633 34.2625Z" fill="#E5313F"/>
<path d="M8.99135 11.9374C8.99135 9.98895 7.4061 8.40381 5.4576 8.40381C3.50921 8.40381 1.92407 9.98892 1.92407 11.9374C1.92407 13.8858 3.50921 15.4711 5.4576 15.4711C7.4061 15.4711 8.99135 13.8858 8.99135 11.9374ZM3.66168 11.9374C3.66168 10.9472 4.46732 10.1414 5.4576 10.1414C6.44796 10.1414 7.25374 10.9472 7.25374 11.9374C7.25374 12.9277 6.44796 13.7335 5.4576 13.7335C4.46732 13.7335 3.66168 12.9277 3.66168 11.9374Z" fill="#E5313F"/>
<path d="M44.5424 8.40381C42.5939 8.40381 41.0088 9.98892 41.0088 11.9374C41.0088 13.8858 42.5939 15.4711 44.5424 15.4711C46.4909 15.4711 48.0761 13.8858 48.0761 11.9374C48.0761 9.98895 46.4909 8.40381 44.5424 8.40381ZM44.5424 13.7335C43.5521 13.7335 42.7464 12.9277 42.7464 11.9374C42.7464 10.9472 43.5521 10.1414 44.5424 10.1414C45.5328 10.1414 46.3384 10.9472 46.3384 11.9374C46.3385 12.9277 45.5328 13.7335 44.5424 13.7335Z" fill="#E5313F"/>
<path d="M24.8052 42.8096C22.8568 42.8096 21.2717 44.3947 21.2717 46.3432C21.2717 48.2917 22.8568 49.8768 24.8052 49.8768C26.7538 49.8768 28.3391 48.2917 28.3391 46.3432C28.3391 44.3947 26.7539 42.8096 24.8052 42.8096ZM24.8052 48.1392C23.815 48.1392 23.0093 47.3336 23.0093 46.3432C23.0093 45.3529 23.815 44.5472 24.8052 44.5472C25.7957 44.5472 26.6015 45.3529 26.6015 46.3432C26.6015 47.3336 25.7958 48.1392 24.8052 48.1392Z" fill="#E5313F"/>
</svg>
