<svg width="50" height="50" viewBox="0 0 50 50" fill="none" xmlns="http://www.w3.org/2000/svg">
<path d="M29.979 27.0313C29.7124 27.0313 29.453 26.9282 29.2593 26.7428C29.0353 26.5292 28.9197 26.2272 28.9395 25.9188C29.0645 24.1011 29.1363 22.4261 29.1593 20.8334H28.1124C28.0718 22.5115 27.9322 24.1636 27.6968 25.7574C27.6509 26.0647 27.4707 26.3365 27.204 26.4969C26.9395 26.6574 26.6145 26.6928 26.3207 26.5876C25.1759 26.1855 24.1113 25.5136 23.2415 24.6438C20.6155 22.0178 20.0363 18.0574 21.8009 14.7876C22.1718 14.0928 22.6572 13.4428 23.2405 12.8574C23.8374 12.2605 24.4978 11.7751 25.202 11.4157C25.3343 11.3334 25.5426 11.2282 25.7509 11.1376C26.827 10.6386 28.0103 10.3865 29.2374 10.4167C31.4186 10.4407 33.477 11.3074 35.027 12.8574C36.579 14.4105 37.4415 16.4667 37.4572 18.649C37.4915 19.849 37.2426 21.0615 36.7374 22.1563C36.3509 23.0469 35.7561 23.9147 35.027 24.6438C33.6999 25.9709 31.9478 26.8178 30.0957 27.0261C30.0561 27.0292 30.0176 27.0313 29.979 27.0313ZM27.0832 18.7501H30.2082C30.7843 18.7501 31.2499 19.2157 31.2499 19.7917C31.2499 21.3407 31.202 22.9511 31.1051 24.6813C32.0197 24.3772 32.8634 23.8605 33.5551 23.1699C34.0999 22.6251 34.5426 21.9792 34.8363 21.3032C35.2238 20.4626 35.402 19.5938 35.3749 18.698C35.3749 18.6897 35.3749 18.6803 35.3749 18.673C35.3655 17.0386 34.7197 15.4959 33.5551 14.3303C32.3936 13.1688 30.8488 12.5188 29.2072 12.5001C28.2988 12.4782 27.4165 12.6636 26.604 13.0397C26.4551 13.1053 26.329 13.1667 26.2124 13.2365C25.6405 13.5313 25.1582 13.8876 24.7155 14.3303C24.277 14.7699 23.9134 15.2553 23.6363 15.773C22.3113 18.2292 22.7457 21.2011 24.7145 23.1709C25.0478 23.5032 25.4176 23.798 25.8145 24.0459C25.9655 22.6584 26.0415 21.2334 26.0415 19.7917C26.0415 19.2157 26.5072 18.7501 27.0832 18.7501Z" fill="#E5313F"/>
<path d="M34.2916 24.9449C34.025 24.9449 33.7583 24.8428 33.5552 24.6397C33.1479 24.2324 33.1479 23.5741 33.5552 23.1668L38.7114 18.0116C39.2677 17.4553 39.6958 16.8293 39.9854 16.1522C40.3687 15.3272 40.5541 14.4334 40.5354 13.5324C40.5218 11.8793 39.8739 10.3355 38.7114 9.17199C37.5489 8.00845 36.0041 7.36157 34.3645 7.34803C33.4562 7.32824 32.5593 7.51365 31.7625 7.88449C31.0541 8.18657 30.4302 8.6147 29.8729 9.17199L24.7166 14.3272C24.3093 14.7345 23.651 14.7345 23.2437 14.3272C22.8364 13.9199 22.8364 13.2616 23.2437 12.8543L28.4 7.69907C29.1468 6.95219 29.9927 6.37511 30.9156 5.9824C31.9666 5.49178 33.1958 5.24386 34.3958 5.26574C36.5729 5.28449 38.6333 6.14907 40.1854 7.70011C41.7374 9.25115 42.601 11.3126 42.6197 13.5032C42.6437 14.7064 42.3916 15.9209 41.8885 17.0001C41.5093 17.8907 40.9312 18.7387 40.1854 19.4845L35.0291 24.6397C34.825 24.8439 34.5583 24.9449 34.2916 24.9449Z" fill="#E5313F"/>
<path d="M22.7209 16.3198C22.447 16.3198 22.1813 16.2114 21.9845 16.0146L10.722 4.75309C10.5261 4.55726 10.4167 4.29268 10.4167 4.01559C10.4167 3.73851 10.5261 3.47393 10.722 3.27913L13.6688 0.333301C14.0761 -0.0739909 14.7345 -0.0739909 15.1417 0.333301L26.4115 11.602C26.6459 11.8375 26.7542 12.1698 26.7032 12.4968C26.6532 12.825 26.449 13.1093 26.1542 13.2625C25.6407 13.5291 25.1574 13.8875 24.7167 14.326C24.2824 14.7614 23.9188 15.2468 23.6386 15.7698C23.4834 16.0593 23.199 16.2593 22.873 16.3073C22.822 16.3156 22.7709 16.3198 22.7209 16.3198ZM12.9313 4.01559L22.5522 13.6354C22.7647 13.3635 22.9959 13.1021 23.2438 12.8541C23.4938 12.6052 23.7542 12.3739 24.0261 12.1635L14.4053 2.54268L12.9313 4.01559ZM25.0001 45.8333C19.1595 45.8333 14.5834 43.0875 14.5834 39.5833C14.5834 36.4406 18.3438 33.851 23.4313 33.4093C23.9147 32.3 24.3324 31.1302 24.6751 29.9229C25.0772 28.5604 25.4001 27.0604 25.6355 25.452C25.9053 23.6312 26.0417 21.726 26.0417 19.7916C26.0417 19.2156 26.5074 18.75 27.0834 18.75H30.2084C30.7845 18.75 31.2501 19.2156 31.2501 19.7916C31.2501 21.7448 31.1751 23.7958 31.0188 26.0614C30.923 27.4093 30.7959 28.8031 30.6292 30.3229C30.4772 31.7333 30.297 33.0354 30.1345 34.1229C33.4178 35.2104 35.4167 37.2521 35.4167 39.5833C35.4167 43.0875 30.8407 45.8333 25.0001 45.8333ZM28.1126 20.8333C28.072 22.5114 27.9324 24.1635 27.697 25.7573C27.447 27.4614 27.1032 29.0583 26.6772 30.5041C26.2501 32.0083 25.7084 33.4739 25.0709 34.8458C24.9084 35.1968 24.5647 35.4291 24.1782 35.4479C20.0355 35.6552 16.6667 37.5104 16.6667 39.5833C16.6667 41.5541 20.0897 43.75 25.0001 43.75C29.9115 43.75 33.3334 41.5541 33.3334 39.5833C33.3334 38.0854 31.474 36.5937 28.7063 35.8718C28.1886 35.7364 27.8584 35.2323 27.9397 34.7041C28.1272 33.4958 28.3667 31.8802 28.5595 30.0958C28.724 28.601 28.848 27.2343 28.9417 25.9156C29.0657 24.1 29.1376 22.425 29.1605 20.8323H28.1126V20.8333Z" fill="#E5313F"/>
<path d="M41.6667 50.0001H8.33341C8.02716 50.0001 7.73654 49.8657 7.53862 49.6313C7.3407 49.397 7.25633 49.0886 7.30633 48.7865L10.4313 30.0365C10.5147 29.5355 10.949 29.1667 11.4584 29.1667H25.6772C26.0032 29.1667 26.3115 29.3199 26.5074 29.5803C26.7042 29.8407 26.7678 30.1782 26.6792 30.4928C26.249 32.0074 25.7074 33.472 25.0699 34.8449C24.9074 35.1959 24.5636 35.4282 24.1772 35.447C20.0355 35.6553 16.6667 37.5105 16.6667 39.5834C16.6667 41.5542 20.0897 43.7501 25.0001 43.7501C29.9115 43.7501 33.3334 41.5542 33.3334 39.5834C33.3334 38.0855 31.474 36.5938 28.7063 35.872C28.1886 35.7365 27.8584 35.2324 27.9397 34.7043C28.1272 33.4959 28.3667 31.8803 28.5595 30.0959C28.6157 29.5678 29.0615 29.1667 29.5938 29.1667H38.5417C39.0511 29.1667 39.4855 29.5355 39.5688 30.0376L42.6938 48.7876C42.7449 49.0897 42.6595 49.398 42.4605 49.6324C42.2636 49.8657 41.973 50.0001 41.6667 50.0001ZM9.56362 47.9167H40.4376L37.6605 31.2501H30.524C30.398 32.3042 30.2615 33.2782 30.1355 34.123C33.4178 35.2105 35.4167 37.2522 35.4167 39.5834C35.4167 43.0876 30.8407 45.8334 25.0001 45.8334C19.1595 45.8334 14.5834 43.0876 14.5834 39.5834C14.5834 36.4407 18.3438 33.8511 23.4313 33.4095C23.7355 32.7115 24.0136 31.9897 24.2636 31.2501H12.3407L9.56362 47.9167Z" fill="#E5313F"/>
</svg>
