<svg width="50" height="50" viewBox="0 0 50 50" fill="none" xmlns="http://www.w3.org/2000/svg">
<g clip-path="url(#clip0_102_775)">
<path d="M23.575 10.9458H30.1302V19.1364C30.1302 19.3436 30.2125 19.5423 30.359 19.6889C30.5055 19.8354 30.7042 19.9177 30.9114 19.9177C31.1186 19.9177 31.3173 19.8354 31.4638 19.6889C31.6103 19.5423 31.6927 19.3436 31.6927 19.1364V10.1646C31.6927 9.95735 31.6103 9.75864 31.4638 9.61212C31.3173 9.46561 31.1186 9.3833 30.9114 9.3833H23.575C23.3678 9.3833 23.169 9.46561 23.0225 9.61212C22.876 9.75864 22.7937 9.95735 22.7937 10.1646C22.7937 10.3718 22.876 10.5705 23.0225 10.717C23.169 10.8635 23.3678 10.9458 23.575 10.9458Z" fill="#E5313F"/>
<path d="M30.1301 25.4167V32.8522C30.1301 33.0594 30.2124 33.2581 30.359 33.4046C30.5055 33.5511 30.7042 33.6334 30.9114 33.6334C31.1186 33.6334 31.3173 33.5511 31.4638 33.4046C31.6103 33.2581 31.6926 33.0594 31.6926 32.8522V25.4167C31.6926 25.2095 31.6103 25.0108 31.4638 24.8643C31.3173 24.7178 31.1186 24.6355 30.9114 24.6355C30.7042 24.6355 30.5055 24.7178 30.359 24.8643C30.2124 25.0108 30.1301 25.2095 30.1301 25.4167Z" fill="#E5313F"/>
<path d="M30.9115 37.4687C30.7043 37.4687 30.5055 37.551 30.359 37.6975C30.2125 37.8441 30.1302 38.0428 30.1302 38.25V48.4375H1.5625V10.9458H8.19062C8.39783 10.9458 8.59654 10.8635 8.74305 10.717C8.88956 10.5705 8.97187 10.3718 8.97187 10.1646C8.97187 9.95735 8.88956 9.75864 8.74305 9.61212C8.59654 9.46561 8.39783 9.3833 8.19062 9.3833H0.78125C0.57405 9.3833 0.375336 9.46561 0.228823 9.61212C0.08231 9.75864 0 9.95735 0 10.1646L0 49.2187C0 49.4259 0.08231 49.6246 0.228823 49.7711C0.375336 49.9177 0.57405 50 0.78125 50H30.9115C31.1187 50 31.3174 49.9177 31.4639 49.7711C31.6104 49.6246 31.6927 49.4259 31.6927 49.2187V38.25C31.6927 38.0428 31.6104 37.8441 31.4639 37.6975C31.3174 37.551 31.1187 37.4687 30.9115 37.4687Z" fill="#E5313F"/>
<path d="M28.1855 19.9177C28.3927 19.9177 28.5914 19.8354 28.7379 19.6889C28.8844 19.5424 28.9667 19.3437 28.9667 19.1365V12.8865C28.9667 12.6793 28.8844 12.4806 28.7379 12.334C28.5914 12.1875 28.3927 12.1052 28.1855 12.1052H3.50732C3.30012 12.1052 3.10141 12.1875 2.9549 12.334C2.80838 12.4806 2.72607 12.6793 2.72607 12.8865V46.4927C2.72607 46.6999 2.80838 46.8986 2.9549 47.0452C3.10141 47.1917 3.30012 47.274 3.50732 47.274H28.1855C28.3927 47.274 28.5914 47.1917 28.7379 47.0452C28.8844 46.8986 28.9667 46.6999 28.9667 46.4927V38.8271C28.9667 38.6199 28.8844 38.4212 28.7379 38.2747C28.5914 38.1282 28.3927 38.0458 28.1855 38.0458C27.9783 38.0458 27.7795 38.1282 27.633 38.2747C27.4865 38.4212 27.4042 38.6199 27.4042 38.8271V45.7115H4.28857V13.6719H27.4042V19.1365C27.4042 19.3437 27.4865 19.5424 27.633 19.6889C27.7795 19.8354 27.9783 19.9177 28.1855 19.9177Z" fill="#E5313F"/>
<path d="M27.4041 24.397V33.7303C27.4041 33.9375 27.4864 34.1362 27.6329 34.2827C27.7794 34.4292 27.9781 34.5116 28.1853 34.5116C28.3925 34.5116 28.5912 34.4292 28.7377 34.2827C28.8842 34.1362 28.9666 33.9375 28.9666 33.7303V24.397C28.9666 24.1898 28.8842 23.9911 28.7377 23.8445C28.5912 23.698 28.3925 23.6157 28.1853 23.6157C27.9781 23.6157 27.7794 23.698 27.6329 23.8445C27.4864 23.9911 27.4041 24.1898 27.4041 24.397Z" fill="#E5313F"/>
<path d="M10.7489 10.9459H20.9427C21.0612 10.9461 21.1782 10.9192 21.2848 10.8674C21.3914 10.8156 21.4848 10.7402 21.558 10.647C21.6312 10.5538 21.6821 10.4451 21.7071 10.3292C21.7321 10.2134 21.7303 10.0933 21.7021 9.97824L21.0239 7.22303C20.9824 7.05318 20.8852 6.90216 20.7477 6.79414C20.6102 6.68611 20.4404 6.62733 20.2656 6.6272H11.4271C11.2522 6.62733 11.0825 6.68611 10.945 6.79414C10.8075 6.90216 10.7102 7.05318 10.6687 7.22303L9.99059 9.97824C9.96233 10.0932 9.96058 10.2132 9.98548 10.329C10.0104 10.4448 10.0613 10.5534 10.1343 10.6466C10.2074 10.7398 10.3007 10.8152 10.4072 10.8671C10.5136 10.9189 10.6305 10.9459 10.7489 10.9459ZM12.0396 8.1897H19.6531L19.9458 9.38345H11.7458L12.0396 8.1897Z" fill="#E5313F"/>
<path d="M49.2187 0H47.4478C47.2406 0 47.0419 0.08231 46.8954 0.228823C46.7489 0.375336 46.6666 0.57405 46.6666 0.78125C46.6666 0.98845 46.7489 1.18716 46.8954 1.33368C47.0419 1.48019 47.2406 1.5625 47.4478 1.5625H48.4374V7.92396C48.4374 9.51332 47.806 11.0376 46.6822 12.1614C45.5583 13.2853 44.0341 13.9167 42.4447 13.9167C40.8553 13.9167 39.3311 13.2853 38.2072 12.1614C37.0834 11.0376 36.452 9.51332 36.452 7.92396V1.5625H37.8718C38.079 1.5625 38.2777 1.48019 38.4242 1.33368C38.5707 1.18716 38.653 0.98845 38.653 0.78125C38.653 0.57405 38.5707 0.375336 38.4242 0.228823C38.2777 0.08231 38.079 0 37.8718 0L35.6707 0C35.4635 0 35.2648 0.08231 35.1183 0.228823C34.9718 0.375336 34.8895 0.57405 34.8895 0.78125V7.92396C34.8919 9.79226 35.5856 11.5936 36.8368 12.981C38.0881 14.3684 39.8085 15.2438 41.6666 15.4385V17.6812C41.6666 28.6187 33.9197 35.3948 26.7416 35.3948C25.8792 35.4187 25.021 35.2652 24.2203 34.944C23.4195 34.6229 22.6933 34.1407 22.0864 33.5275C21.4795 32.9143 21.005 32.183 20.6921 31.379C20.3793 30.5749 20.2348 29.7153 20.2676 28.8531C20.2408 27.2278 20.8419 25.6547 21.9458 24.4615C22.6434 23.7841 23.4731 23.2577 24.3832 22.9152C25.2933 22.5727 26.2642 22.4214 27.2353 22.4708C30.0374 22.4708 33.251 24.3896 36.7864 28.1719C36.9278 28.3238 37.1238 28.4134 37.3313 28.4208C37.5388 28.4282 37.7407 28.3529 37.8926 28.2115C38.0446 28.07 38.1341 27.874 38.1415 27.6665C38.149 27.4591 38.0737 27.2572 37.9322 27.1052C34.0895 22.9937 30.4916 20.9083 27.2395 20.9083C26.0564 20.8562 24.8753 21.0493 23.7704 21.4754C22.6654 21.9015 21.6605 22.5514 20.8187 23.3844C19.4374 24.8676 18.6818 26.8266 18.7093 28.8531C18.6825 29.919 18.8715 30.9792 19.265 31.9702C19.6585 32.9611 20.2483 33.8622 20.9991 34.6192C21.7498 35.3763 22.6459 35.9737 23.6335 36.3755C24.6211 36.7773 25.6797 36.9752 26.7458 36.9573C36.9301 36.9573 43.2333 26.9573 43.2333 17.6865V15.4385C45.0895 15.2414 46.8074 14.365 48.0565 12.9778C49.3056 11.5906 49.9978 9.79065 49.9999 7.92396V0.78125C49.9999 0.57405 49.9176 0.375336 49.7711 0.228823C49.6246 0.08231 49.4259 0 49.2187 0V0Z" fill="#E5313F"/>
<path d="M45.8573 36.399C45.5315 36.4037 45.2079 36.4517 44.8948 36.5417C43.7186 34.5648 42.4318 32.6559 41.0406 30.824C40.9785 30.7423 40.9009 30.6737 40.8123 30.622C40.7236 30.5703 40.6257 30.5366 40.5241 30.5228C40.4224 30.5089 40.319 30.5153 40.2198 30.5414C40.1206 30.5675 40.0275 30.6129 39.9458 30.675C39.8641 30.7371 39.7955 30.8147 39.7438 30.9033C39.6921 30.992 39.6584 31.0899 39.6446 31.1916C39.6308 31.2932 39.6371 31.3966 39.6632 31.4958C39.6893 31.595 39.7347 31.6881 39.7968 31.7698C41.1317 33.5321 42.3696 35.3657 43.5052 37.2625C42.8383 37.8215 42.3899 38.5979 42.239 39.4549C42.0882 40.3119 42.2445 41.1947 42.6804 41.9478C43.1164 42.7009 43.804 43.2762 44.6223 43.5722C45.4407 43.8682 46.3372 43.8661 47.1541 43.5662C47.9709 43.2662 48.6559 42.6878 49.0882 41.9326C49.5206 41.1774 49.6727 40.2939 49.5177 39.4376C49.3628 38.5813 48.9108 37.8071 48.2412 37.2513C47.5716 36.6954 46.7274 36.3936 45.8573 36.399ZM45.8573 42.2761C45.4306 42.2761 45.0135 42.1495 44.6587 41.9125C44.304 41.6754 44.0275 41.3385 43.8642 40.9443C43.7009 40.5501 43.6582 40.1164 43.7414 39.6979C43.8247 39.2794 44.0301 38.895 44.3318 38.5933C44.6335 38.2916 45.0179 38.0862 45.4364 38.0029C45.8549 37.9197 46.2886 37.9624 46.6828 38.1257C47.077 38.289 47.4139 38.5655 47.651 38.9202C47.888 39.275 48.0146 39.6921 48.0146 40.1188C48.014 40.6907 47.7865 41.2391 47.3821 41.6436C46.9776 42.048 46.4292 42.2755 45.8573 42.2761Z" fill="#E5313F"/>
<path d="M21.25 18.8928C21.25 18.6856 21.1677 18.4869 21.0212 18.3404C20.8747 18.1939 20.676 18.1116 20.4688 18.1116H7.8125C7.6053 18.1116 7.40659 18.1939 7.26007 18.3404C7.11356 18.4869 7.03125 18.6856 7.03125 18.8928C7.03125 19.1 7.11356 19.2987 7.26007 19.4453C7.40659 19.5918 7.6053 19.6741 7.8125 19.6741H20.4729C20.6794 19.673 20.877 19.5902 21.0227 19.4438C21.1683 19.2974 21.25 19.0993 21.25 18.8928Z" fill="#E5313F"/>
<path d="M16.6417 23.6157H7.8125C7.7099 23.6157 7.60831 23.6359 7.51353 23.6752C7.41874 23.7145 7.33262 23.772 7.26007 23.8445C7.18753 23.9171 7.12998 24.0032 7.09072 24.098C7.05146 24.1928 7.03125 24.2944 7.03125 24.397C7.03125 24.4996 7.05146 24.6012 7.09072 24.6959C7.12998 24.7907 7.18753 24.8769 7.26007 24.9494C7.33262 25.0219 7.41874 25.0795 7.51353 25.1188C7.60831 25.158 7.7099 25.1782 7.8125 25.1782H16.6396C16.8468 25.1782 17.0455 25.0959 17.192 24.9494C17.3385 24.8029 17.4208 24.6042 17.4208 24.397C17.4208 24.1898 17.3385 23.9911 17.192 23.8445C17.0455 23.698 16.8468 23.6157 16.6396 23.6157H16.6417Z" fill="#E5313F"/>
<path d="M7.8125 30.6824H16.6396C16.8468 30.6824 17.0455 30.6001 17.192 30.4536C17.3385 30.307 17.4208 30.1083 17.4208 29.9011C17.4208 29.6939 17.3385 29.4952 17.192 29.3487C17.0455 29.2022 16.8468 29.1199 16.6396 29.1199H7.8125C7.6053 29.1199 7.40659 29.2022 7.26007 29.3487C7.11356 29.4952 7.03125 29.6939 7.03125 29.9011C7.03125 30.1083 7.11356 30.307 7.26007 30.4536C7.40659 30.6001 7.6053 30.6824 7.8125 30.6824Z" fill="#E5313F"/>
<path d="M7.8125 36.1865H16.6396C16.8468 36.1865 17.0455 36.1042 17.192 35.9577C17.3385 35.8112 17.4208 35.6125 17.4208 35.4053C17.4208 35.1981 17.3385 34.9994 17.192 34.8528C17.0455 34.7063 16.8468 34.624 16.6396 34.624H7.8125C7.6053 34.624 7.40659 34.7063 7.26007 34.8528C7.11356 34.9994 7.03125 35.1981 7.03125 35.4053C7.03125 35.6125 7.11356 35.8112 7.26007 35.9577C7.40659 36.1042 7.6053 36.1865 7.8125 36.1865Z" fill="#E5313F"/>
<path d="M7.8125 41.6907H23.9156C24.1228 41.6907 24.3215 41.6084 24.4681 41.4619C24.6146 41.3153 24.6969 41.1166 24.6969 40.9094C24.6969 40.7022 24.6146 40.5035 24.4681 40.357C24.3215 40.2105 24.1228 40.1282 23.9156 40.1282H7.8125C7.6053 40.1282 7.40659 40.2105 7.26007 40.357C7.11356 40.5035 7.03125 40.7022 7.03125 40.9094C7.03125 41.1166 7.11356 41.3153 7.26007 41.4619C7.40659 41.6084 7.6053 41.6907 7.8125 41.6907Z" fill="#E5313F"/>
</g>
<defs>
<clipPath id="clip0_102_775">
<rect width="50" height="50" fill="white"/>
</clipPath>
</defs>
</svg>
