<svg width="50" height="50" viewBox="0 0 50 50" fill="none" xmlns="http://www.w3.org/2000/svg">
<path d="M14.8853 40.927C14.7137 41.0985 14.6073 41.3244 14.5845 41.566C14.5616 41.8075 14.6238 42.0494 14.7603 42.2499C14.8809 42.4271 15.0532 42.5628 15.2537 42.6385C15.4543 42.7142 15.6733 42.7262 15.8809 42.6728C16.0885 42.6194 16.2745 42.5033 16.4137 42.3403C16.5529 42.1773 16.6384 41.9753 16.6585 41.7619C16.6787 41.5485 16.6326 41.3341 16.5264 41.1479C16.4202 40.9617 16.2592 40.8128 16.0652 40.7215C15.8713 40.6302 15.6539 40.6009 15.4428 40.6377C15.2316 40.6745 15.0369 40.7755 14.8853 40.927ZM35.1145 40.927C33.8436 39.7812 32.4895 41.9687 33.979 42.6249C34.2015 42.7167 34.4489 42.7286 34.6792 42.6586C34.9095 42.5887 35.1084 42.4411 35.2422 42.241C35.376 42.041 35.4364 41.8007 35.4131 41.5612C35.3898 41.3217 35.2843 41.0976 35.1145 40.927Z" fill="#E5313F"/>
<path d="M46.8749 13.5416C46.552 13.5416 46.7707 14.0416 45.8332 10.1666C45.7395 9.7916 45.7603 9.87494 43.4791 7.59369C42.8437 6.96869 42.1874 7.4166 40.0416 8.13535C38.2082 5.43744 38.2603 5.36452 37.7499 5.20827C33.3332 4.1666 33.2395 3.9791 32.7082 4.37494L29.2603 6.95827L25.7395 3.42702C25.6427 3.32939 25.5274 3.25189 25.4005 3.19901C25.2736 3.14612 25.1374 3.1189 24.9999 3.1189C24.8624 3.1189 24.7262 3.14612 24.5993 3.19901C24.4724 3.25189 24.3572 3.32939 24.2603 3.42702C20.6562 7.0416 22.177 5.98952 17.8228 8.15619L14.1666 5.4166C13.7916 5.13535 13.9687 5.20827 9.37491 5.20827C8.90616 5.20827 9.14575 5.11452 4.58325 8.5416C4.16658 8.8541 4.22908 8.94785 3.31241 13.5416C2.90203 13.5457 2.49648 13.6306 2.11891 13.7914C1.74133 13.9523 1.39914 14.1859 1.11186 14.479C0.531666 15.0709 0.210374 15.8691 0.218662 16.6979C0.22695 17.5267 0.564139 18.3182 1.15605 18.8984C1.74796 19.4786 2.54611 19.7999 3.37491 19.7916L7.99991 36.4583H7.29158C7.01531 36.4583 6.75036 36.568 6.55501 36.7634C6.35966 36.9587 6.24991 37.2237 6.24991 37.4999V41.6666C6.24991 41.9429 6.35966 42.2078 6.55501 42.4032C6.75036 42.5985 7.01531 42.7083 7.29158 42.7083H10.5207C10.7598 43.8857 11.3986 44.9442 12.3288 45.7045C13.259 46.4648 14.4235 46.8802 15.6249 46.8802C16.8263 46.8802 17.9908 46.4648 18.921 45.7045C19.8512 44.9442 20.49 43.8857 20.7291 42.7083H29.2707C29.5098 43.8857 30.1486 44.9442 31.0788 45.7045C32.009 46.4648 33.1735 46.8802 34.3749 46.8802C35.5763 46.8802 36.7408 46.4648 37.671 45.7045C38.6012 44.9442 39.24 43.8857 39.4791 42.7083H42.7082C42.9845 42.7083 43.2495 42.5985 43.4448 42.4032C43.6402 42.2078 43.7499 41.9429 43.7499 41.6666V37.4999C43.7499 37.2237 43.6402 36.9587 43.4448 36.7634C43.2495 36.568 42.9845 36.4583 42.7082 36.4583H41.9999C47.1353 17.9687 46.5103 19.7916 46.8749 19.7916C47.7037 19.7916 48.4986 19.4624 49.0846 18.8763C49.6707 18.2903 49.9999 17.4954 49.9999 16.6666C49.9999 15.8378 49.6707 15.0429 49.0846 14.4569C48.4986 13.8708 47.7037 13.5416 46.8749 13.5416ZM42.427 9.52077L43.8541 10.9479L44.4999 13.5416H36.7499L37.3332 11.2187C40.427 10.1874 39.2707 10.5833 42.427 9.52077ZM33.5624 6.34369L36.8541 7.1666L37.9582 8.82285C35.0416 9.7916 35.7395 8.9791 34.6041 13.5416H32.7187L30.2082 11.0312V8.8541L33.5624 6.34369ZM24.9999 5.63535L28.1249 8.76035C28.1249 12.5104 27.7707 11.5312 29.7812 13.5416H24.3645C25.2707 10.802 25.4062 11.9999 23.1457 7.49994L24.9999 5.63535ZM16.0312 13.5416C16.6666 11.6249 16.177 12.3749 18.3228 10.2291L21.4478 8.68744L22.8749 11.5416L22.1666 13.5416H16.0312ZM9.71866 7.2916H13.1978L16.1249 9.48952C14.3541 11.2604 14.8853 10.3854 13.8332 13.5416H13.1457C11.2395 9.73952 11.2916 9.53119 10.6249 9.37494L7.69783 8.81244L9.71866 7.2916ZM6.02075 10.6041L9.70825 11.3333L10.8124 13.5416H5.43741L6.02075 10.6041ZM8.33325 38.5416H11.4582C9.57283 41.0312 11.9687 40.6249 8.33325 40.6249V38.5416ZM15.6249 44.7916C15.0068 44.7916 14.4027 44.6083 13.8888 44.2649C13.3749 43.9216 12.9743 43.4335 12.7378 42.8625C12.5013 42.2915 12.4394 41.6631 12.56 41.0569C12.6805 40.4508 12.9782 39.8939 13.4152 39.4569C13.8522 39.0199 14.4091 38.7222 15.0153 38.6016C15.6214 38.4811 16.2498 38.543 16.8208 38.7795C17.3918 39.016 17.8799 39.4165 18.2233 39.9304C18.5666 40.4443 18.7499 41.0485 18.7499 41.6666C18.7499 42.4954 18.4207 43.2903 17.8346 43.8763C17.2486 44.4624 16.4537 44.7916 15.6249 44.7916ZM29.2707 40.6249H20.7291C20.5801 39.8679 20.2594 39.1552 19.7916 38.5416H30.2082C29.7404 39.1552 29.4197 39.8679 29.2707 40.6249ZM34.3749 44.7916C33.7568 44.7916 33.1527 44.6083 32.6388 44.2649C32.1249 43.9216 31.7243 43.4335 31.4878 42.8625C31.2513 42.2915 31.1894 41.6631 31.31 41.0569C31.4305 40.4508 31.7282 39.8939 32.1652 39.4569C32.6022 39.0199 33.1591 38.7222 33.7653 38.6016C34.3714 38.4811 34.9998 38.543 35.5708 38.7795C36.1418 39.016 36.6299 39.4165 36.9733 39.9304C37.3166 40.4443 37.4999 41.0485 37.4999 41.6666C37.4999 42.4954 37.1707 43.2903 36.5846 43.8763C35.9986 44.4624 35.2037 44.7916 34.3749 44.7916ZM41.6666 40.6249C38.052 40.6249 40.3749 40.9999 38.5416 38.5416H41.6666V40.6249ZM39.8332 36.4583H10.1666L5.54158 19.7916H44.4582L39.8332 36.4583ZM46.8749 17.7083H3.12491C2.84864 17.7083 2.58369 17.5985 2.38834 17.4032C2.19299 17.2078 2.08325 16.9429 2.08325 16.6666C2.08325 16.3903 2.19299 16.1254 2.38834 15.93C2.58369 15.7347 2.84864 15.6249 3.12491 15.6249H46.8749C47.1512 15.6249 47.4161 15.7347 47.6115 15.93C47.8068 16.1254 47.9166 16.3903 47.9166 16.6666C47.9166 16.9429 47.8068 17.2078 47.6115 17.4032C47.4161 17.5985 47.1512 17.7083 46.8749 17.7083Z" fill="#E5313F"/>
</svg>
