<svg width="50" height="50" viewBox="0 0 50 50" fill="none" xmlns="http://www.w3.org/2000/svg">
<path d="M41.3281 21.0938V36.7969" stroke="#E5313F" stroke-width="2" stroke-miterlimit="10"/>
<path d="M30.5469 42.5781V40.0781L24.0625 22.5781L20.7031 22.6563L13.4375 39.4531V42.5781" stroke="#E5313F" stroke-width="2" stroke-miterlimit="10"/>
<path d="M30.3125 39.375L18.3594 27.4219" stroke="#E5313F" stroke-width="2" stroke-miterlimit="10"/>
<path d="M13.5156 39.6094L25.7813 27.3438" stroke="#E5313F" stroke-width="2" stroke-miterlimit="10"/>
<path d="M8.90625 22.6562V34.1406" stroke="#E5313F" stroke-width="2" stroke-miterlimit="10"/>
<path d="M10.7812 36.0156H7.10938V42.5781H10.7812V36.0156Z" stroke="#E5313F" stroke-width="2" stroke-miterlimit="10"/>
<path d="M34.375 12.5781L8.51562 23.3594" stroke="#E5313F" stroke-width="2" stroke-miterlimit="10"/>
<path d="M34.9219 15.4688L25.1562 19.6094" stroke="#E5313F" stroke-width="2" stroke-miterlimit="10"/>
<path d="M8.90625 26.3281L18.9063 22.2656" stroke="#E5313F" stroke-width="2" stroke-miterlimit="10"/>
<path d="M44.6094 42.5781H5.39062" stroke="#E5313F" stroke-width="2" stroke-miterlimit="10"/>
<path d="M36.1719 15.4687L40.8594 19.7656L41.7969 19.375L41.875 13.0469L40 8.75L37.1094 7.42188L35.3906 8.20312L34.375 11.25L36.1719 15.4687Z" stroke="#E5313F" stroke-width="2" stroke-miterlimit="10"/>
<path d="M30.2344 39.6875H13.5156" stroke="#E5313F" stroke-width="2" stroke-miterlimit="10"/>
<path d="M21.3281 26.3281H22.7344" stroke="#E5313F" stroke-width="2" stroke-miterlimit="10"/>
<path d="M43.2813 42.5781H39.6875L40.4688 38.4375H42.5L43.2813 42.5781Z" stroke="#E5313F" stroke-width="2" stroke-miterlimit="10"/>
<path d="M23.3594 22.6562V20.4688H21.3281V22.6562" stroke="#E5313F" stroke-width="2" stroke-miterlimit="10"/>
</svg>
