<svg width="50" height="50" viewBox="0 0 50 50" fill="none" xmlns="http://www.w3.org/2000/svg">
<path fill-rule="evenodd" clip-rule="evenodd" d="M47.9168 46.2897H2.08341C1.50737 46.2897 1.04175 45.824 1.04175 45.248C1.04175 44.672 1.50737 44.2063 2.08341 44.2063H47.9168C48.4928 44.2063 48.9584 44.672 48.9584 45.248C48.9584 45.824 48.4928 46.2897 47.9168 46.2897ZM16.6667 35.873C17.2428 35.873 17.7084 36.3386 17.7084 36.9147C17.7084 37.4907 17.2428 37.9563 16.6667 37.9563H8.33342C7.75737 37.9563 7.29175 37.4907 7.29175 36.9147C7.29175 36.3386 7.75737 35.873 8.33342 35.873H9.37508V22.3313H8.33342C7.75737 22.3313 7.29175 21.8657 7.29175 21.2897C7.29175 20.7147 7.75737 20.248 8.33342 20.248H16.6667C17.2428 20.248 17.7084 20.7147 17.7084 21.2897C17.7084 21.8657 17.2428 22.3313 16.6667 22.3313H15.6251V35.873H16.6667ZM13.5417 22.3313H11.4584V35.873H13.5417V22.3313ZM29.1667 35.873C29.7428 35.873 30.2084 36.3386 30.2084 36.9147C30.2084 37.4907 29.7428 37.9563 29.1667 37.9563H20.8334C20.2574 37.9563 19.7917 37.4907 19.7917 36.9147C19.7917 36.3386 20.2574 35.873 20.8334 35.873H21.8751V22.3313H20.8334C20.2574 22.3313 19.7917 21.8657 19.7917 21.2897C19.7917 20.7147 20.2574 20.248 20.8334 20.248H29.1667C29.7428 20.248 30.2084 20.7147 30.2084 21.2897C30.2084 21.8657 29.7428 22.3313 29.1667 22.3313H28.1251V35.873H29.1667ZM26.0417 22.3313H23.9584V35.873H26.0417V22.3313ZM45.8334 41.0813C45.8334 41.6574 45.3678 42.123 44.7918 42.123H5.20842C4.63237 42.123 4.16675 41.6574 4.16675 41.0813C4.16675 40.5053 4.63237 40.0397 5.20842 40.0397H44.7918C45.3678 40.0397 45.8334 40.5053 45.8334 41.0813ZM41.6668 35.873C42.2428 35.873 42.7084 36.3386 42.7084 36.9147C42.7084 37.4907 42.2428 37.9563 41.6668 37.9563H33.3334C32.7574 37.9563 32.2917 37.4907 32.2917 36.9147C32.2917 36.3386 32.7574 35.873 33.3334 35.873H34.3751V22.3313H33.3334C32.7574 22.3313 32.2917 21.8657 32.2917 21.2897C32.2917 20.7147 32.7574 20.248 33.3334 20.248H41.6668C42.2428 20.248 42.7084 20.7147 42.7084 21.2897C42.7084 21.8657 42.2428 22.3313 41.6668 22.3313H40.6251V35.873H41.6668ZM38.5418 22.3313H36.4584V35.873H38.5418V22.3313ZM3.12508 16.0813L25.0001 4.16675L46.8751 16.0813V18.1647H3.12508V16.0813ZM42.2303 16.0813L25.0001 7.173L7.70425 16.0813H42.2303Z" fill="#E5313F"/>
</svg>
