<svg width="50" height="50" viewBox="0 0 50 50" fill="none" xmlns="http://www.w3.org/2000/svg">
<g clip-path="url(#clip0_102_1215)">
<path d="M31.0624 3.539C30.9892 3.61163 30.931 3.69803 30.8914 3.79324C30.8517 3.88844 30.8313 3.99055 30.8313 4.09369C30.8313 4.19682 30.8517 4.29893 30.8914 4.39414C30.931 4.48934 30.9892 4.57575 31.0624 4.64837C32.6663 6.26718 33.5714 8.45052 33.5831 10.7294C33.5948 13.0082 32.7122 15.2007 31.1249 16.8359C30.9794 16.9823 30.8977 17.1803 30.8977 17.3867C30.8977 17.5931 30.9794 17.7911 31.1249 17.9374C31.2704 18.0818 31.4668 18.1631 31.6718 18.164C31.7764 18.1646 31.8802 18.1442 31.9768 18.1039C32.0734 18.0637 32.161 18.0044 32.2343 17.9296C34.1086 15.9987 35.1504 13.4094 35.1358 10.7183C35.1212 8.02734 34.0513 5.4495 32.1561 3.539C32.0101 3.39585 31.8138 3.31567 31.6093 3.31567C31.4048 3.31567 31.2084 3.39585 31.0624 3.539Z" fill="#E5313F"/>
<path d="M34.4374 20.1484C34.2919 20.2948 34.2102 20.4928 34.2102 20.6992C34.2102 20.9056 34.2919 21.1036 34.4374 21.25C34.51 21.3232 34.5964 21.3813 34.6916 21.421C34.7868 21.4606 34.8889 21.4811 34.9921 21.4811C35.0952 21.4811 35.1973 21.4606 35.2925 21.421C35.3877 21.3813 35.4741 21.3232 35.5468 21.25C38.2988 18.44 39.8336 14.6593 39.819 10.7261C39.8044 6.79298 38.2415 3.02379 35.4686 0.23434C35.3236 0.0901463 35.1279 0.00856072 34.9234 0.00710003C34.7189 0.00563935 34.522 0.08442 34.3749 0.226528C34.3017 0.299155 34.2435 0.385562 34.2039 0.480765C34.1642 0.575967 34.1438 0.678081 34.1438 0.781215C34.1438 0.884349 34.1642 0.986463 34.2039 1.08167C34.2435 1.17687 34.3017 1.26328 34.3749 1.3359C36.8565 3.83366 38.2546 7.20835 38.2663 10.7293C38.278 14.2503 36.9024 17.6342 34.4374 20.1484Z" fill="#E5313F"/>
<path d="M27.8202 14.6249C27.965 14.7645 28.1581 14.8428 28.3593 14.8436C28.4658 14.8443 28.5714 14.8231 28.6695 14.7815C28.7675 14.7398 28.8561 14.6786 28.9296 14.6014C29.922 13.5517 30.4677 12.1575 30.4517 10.713C30.4356 9.2685 29.8591 7.88673 28.8436 6.85926C28.6973 6.71375 28.4993 6.63208 28.2929 6.63208C28.0865 6.63208 27.8885 6.71375 27.7421 6.85926C27.6689 6.93189 27.6107 7.0183 27.5711 7.1135C27.5314 7.2087 27.511 7.31081 27.511 7.41395C27.511 7.51708 27.5314 7.6192 27.5711 7.7144C27.6107 7.8096 27.6689 7.89601 27.7421 7.96864C28.4707 8.70619 28.8837 9.69823 28.8939 10.7349C28.9042 11.7716 28.5107 12.7716 27.7968 13.5233C27.6543 13.6728 27.5768 13.8725 27.5812 14.0789C27.5856 14.2853 27.6715 14.4816 27.8202 14.6249Z" fill="#E5313F"/>
<path d="M18.9375 3.53895C18.7912 3.39344 18.5931 3.31177 18.3868 3.31177C18.1804 3.31177 17.9823 3.39344 17.836 3.53895C15.929 5.45113 14.8517 8.03727 14.8371 10.7378C14.8224 13.4383 15.8717 16.0359 17.7578 17.9686C17.8311 18.0434 17.9187 18.1027 18.0153 18.1429C18.1119 18.1832 18.2157 18.2036 18.3203 18.203C18.5253 18.2021 18.7217 18.1208 18.8672 17.9764C19.0127 17.8301 19.0944 17.6321 19.0944 17.4257C19.0944 17.2193 19.0127 17.0213 18.8672 16.8749C17.281 15.2387 16.3998 13.0456 16.4129 10.7668C16.4261 8.48794 17.3325 6.30517 18.9375 4.68739C19.0168 4.61423 19.0801 4.52544 19.1234 4.42661C19.1667 4.32778 19.189 4.22106 19.189 4.11317C19.189 4.00528 19.1667 3.89855 19.1234 3.79973C19.0801 3.7009 19.0168 3.61211 18.9375 3.53895Z" fill="#E5313F"/>
<path d="M14.5233 0.226449C11.7505 3.0159 10.1876 6.78509 10.173 10.7182C10.1583 14.6514 11.6931 18.4321 14.4452 21.2421C14.5178 21.3153 14.6042 21.3734 14.6994 21.4131C14.7946 21.4527 14.8968 21.4732 14.9999 21.4732C15.103 21.4732 15.2051 21.4527 15.3003 21.4131C15.3955 21.3734 15.4819 21.3153 15.5546 21.2421C15.7001 21.0957 15.7818 20.8977 15.7818 20.6913C15.7818 20.4849 15.7001 20.2869 15.5546 20.1405C13.093 17.6256 11.7203 14.2428 11.7335 10.7237C11.7466 7.20467 13.1446 3.83222 15.6249 1.33582C15.6981 1.2632 15.7562 1.17679 15.7959 1.08159C15.8356 0.986385 15.856 0.884271 15.856 0.781137C15.856 0.678003 15.8356 0.575889 15.7959 0.480686C15.7562 0.385484 15.6981 0.299077 15.6249 0.226449C15.4785 0.0809408 15.2805 -0.000732422 15.0741 -0.000732422C14.8677 -0.000732422 14.6697 0.0809408 14.5233 0.226449Z" fill="#E5313F"/>
<path d="M22.2578 6.85926C22.1114 6.71375 21.9134 6.63208 21.707 6.63208C21.5006 6.63208 21.3026 6.71375 21.1563 6.85926C20.144 7.88979 19.5717 9.27325 19.56 10.7177C19.5483 12.1622 20.0983 13.5547 21.0938 14.6014C21.1673 14.6786 21.2558 14.7398 21.3539 14.7815C21.452 14.8231 21.5575 14.8443 21.6641 14.8436C21.8167 14.8431 21.9659 14.7978 22.0931 14.7133C22.2203 14.6289 22.32 14.5091 22.3798 14.3686C22.4397 14.2281 22.4571 14.0732 22.4298 13.923C22.4026 13.7728 22.3319 13.6338 22.2266 13.5233C21.5127 12.7716 21.1192 11.7716 21.1294 10.7349C21.1396 9.69823 21.5527 8.70619 22.2813 7.96864C22.353 7.89447 22.4093 7.80684 22.4469 7.7108C22.4846 7.61476 22.5029 7.51221 22.5007 7.40907C22.4985 7.30592 22.4759 7.20424 22.4343 7.10987C22.3926 7.0155 22.3326 6.93033 22.2578 6.85926Z" fill="#E5313F"/>
<path d="M14.0625 45.3126C13.4409 45.3126 12.8448 45.5595 12.4052 45.999C11.9657 46.4386 11.7188 47.0347 11.7188 47.6563V49.2188C11.7188 49.426 11.8011 49.6247 11.9476 49.7712C12.0941 49.9177 12.2928 50.0001 12.5 50.0001H17.1875C17.3947 50.0001 17.5934 49.9177 17.7399 49.7712C17.8864 49.6247 17.9688 49.426 17.9688 49.2188V47.6563C17.9725 47.0781 17.7623 46.5189 17.3787 46.0863C16.9951 45.6536 16.4651 45.3781 15.8906 45.3126L17.1875 41.0157H32.8125L34.1094 45.3126C33.5349 45.3781 33.0049 45.6536 32.6213 46.0863C32.2377 46.5189 32.0275 47.0781 32.0312 47.6563V49.2188C32.0312 49.426 32.1136 49.6247 32.2601 49.7712C32.4066 49.9177 32.6053 50.0001 32.8125 50.0001H37.5C37.7072 50.0001 37.9059 49.9177 38.0524 49.7712C38.1989 49.6247 38.2812 49.426 38.2812 49.2188V47.6563C38.2812 47.0347 38.0343 46.4386 37.5948 45.999C37.1552 45.5595 36.5591 45.3126 35.9375 45.3126H35.7344L25.9844 13.0547C26.469 12.8304 26.8626 12.4474 27.0998 11.9689C27.337 11.4904 27.4038 10.9453 27.2889 10.4238C27.1741 9.90221 26.8846 9.43551 26.4683 9.10094C26.0521 8.76637 25.534 8.58398 25 8.58398C24.466 8.58398 23.9479 8.76637 23.5317 9.10094C23.1154 9.43551 22.8259 9.90221 22.7111 10.4238C22.5962 10.9453 22.663 11.4904 22.9002 11.9689C23.1374 12.4474 23.531 12.8304 24.0156 13.0547L14.2656 45.3126H14.0625ZM16.4062 47.6563V48.4376H13.2812V47.6563C13.2812 47.4491 13.3636 47.2504 13.5101 47.1039C13.6566 46.9574 13.8553 46.8751 14.0625 46.8751H15.625C15.8322 46.8751 16.0309 46.9574 16.1774 47.1039C16.3239 47.2504 16.4062 47.4491 16.4062 47.6563ZM28.7891 27.7344H21.7578L27.7344 24.1485L28.7891 27.7344ZM29.0234 28.5157L30.6797 33.9844H20.1328L29.0156 28.5157H29.0234ZM21.4297 27.0001L25 15.2032L27.4688 23.3751L21.4297 27.0001ZM20.9766 28.5157H27.5234L19.4766 33.4688L20.9766 28.5157ZM19.0859 34.7657H29.4062L17.4844 40.0704L19.0859 34.7657ZM19.0313 40.2344L30.9688 34.9297L32.5312 40.2344H19.0313ZM36.7188 47.6563V48.4376H33.5938V47.6563C33.5938 47.4491 33.6761 47.2504 33.8226 47.1039C33.9691 46.9574 34.1678 46.8751 34.375 46.8751H35.9375C36.1447 46.8751 36.3434 46.9574 36.4899 47.1039C36.6364 47.2504 36.7188 47.4491 36.7188 47.6563ZM25 10.1563C25.1545 10.1563 25.3056 10.2021 25.434 10.288C25.5625 10.3738 25.6626 10.4958 25.7218 10.6386C25.7809 10.7813 25.7964 10.9384 25.7662 11.09C25.7361 11.2415 25.6617 11.3807 25.5524 11.49C25.4432 11.5992 25.304 11.6737 25.1524 11.7038C25.0009 11.7339 24.8438 11.7185 24.701 11.6593C24.5583 11.6002 24.4363 11.5001 24.3504 11.3716C24.2646 11.2431 24.2188 11.0921 24.2188 10.9376C24.2188 10.7304 24.3011 10.5316 24.4476 10.3851C24.5941 10.2386 24.7928 10.1563 25 10.1563Z" fill="#E5313F"/>
</g>
<defs>
<clipPath id="clip0_102_1215">
<rect width="50" height="50" fill="white"/>
</clipPath>
</defs>
</svg>
