<svg width="50" height="50" viewBox="0 0 50 50" fill="none" xmlns="http://www.w3.org/2000/svg">
<path d="M25.0781 9.45312C27.6562 9.45312 29.6875 7.42188 29.6875 4.84375C29.6875 2.26562 27.6562 0.234375 25.0781 0.234375C22.5 0.234375 20.4688 2.34375 20.4688 4.84375C20.4688 7.42188 22.5 9.45312 25.0781 9.45312ZM25.0781 1.79688C26.7969 1.79688 28.125 3.20312 28.125 4.84375C28.125 6.5625 26.7187 7.89062 25.0781 7.89062C23.3594 7.89062 22.0312 6.48438 22.0312 4.84375C22.0312 3.20312 23.3594 1.79688 25.0781 1.79688ZM14.0625 8.59375C16.4062 8.59375 18.2812 6.71875 18.2812 4.375C18.2812 2.03125 16.4062 0.234375 14.0625 0.234375C11.7187 0.234375 9.84375 2.10938 9.84375 4.45312C9.84375 6.79688 11.7187 8.59375 14.0625 8.59375ZM14.0625 1.79688C15.5469 1.79688 16.7187 2.96875 16.7187 4.45312C16.7187 5.85938 15.5469 7.03125 14.0625 7.03125C12.5781 7.03125 11.4062 5.85938 11.4062 4.375C11.4062 2.96875 12.5781 1.79688 14.0625 1.79688ZM31.7187 4.45312C31.7187 4.6875 31.7187 4.92188 31.7969 5.07812C32.1094 7.03125 33.8281 8.59375 35.9375 8.59375C36.6406 8.59375 37.3437 8.35938 37.8906 8.04688C37.9687 8.04688 37.9688 7.96875 38.0469 7.96875C38.125 7.89062 38.2031 7.89062 38.2812 7.8125C39.4531 7.03125 40.1562 5.78125 40.1562 4.29688C40.1562 1.95313 38.2812 0.078125 35.9375 0.078125C33.5937 0.078125 31.7187 1.95313 31.7187 4.29688C31.7187 4.375 31.7187 4.375 31.7187 4.45312ZM35.9375 1.79688C37.4219 1.79688 38.5938 2.96875 38.5938 4.45312C38.5938 5.3125 38.125 6.09375 37.5 6.5625C37.0312 6.875 36.5625 7.03125 36.0156 7.03125C34.5312 7.03125 33.3594 5.85938 33.3594 4.45312C33.3594 2.96875 34.5312 1.79688 35.9375 1.79688ZM40.7031 33.4375V26.25C40.9375 26.3281 41.25 26.4062 41.5625 26.4062C42.8906 26.4062 43.9062 25.3125 43.9062 23.9062V14.8438C43.9062 14.2188 43.8281 13.6719 43.5937 13.125C43.5937 12.9687 43.5937 12.8125 43.5156 12.6562C42.8125 11.0938 41.3281 10.0781 39.7656 9.92188H39.6875C39.6094 9.92188 39.4531 9.92188 39.375 9.92188H32.4219C31.25 9.92188 30.1562 10.3906 29.375 11.1719C29.2187 11.1719 28.9844 11.1719 28.8281 11.1719H21.0938C20.8594 11.1719 20.625 11.1719 20.4688 11.25C19.6094 10.4687 18.5156 10 17.4219 10H10.625C8.125 10 6.01562 12.1875 6.01562 14.9219V23.9844C6.01562 24.6094 6.25 25.2344 6.71875 25.7031C7.1875 26.1719 7.73437 26.4844 8.4375 26.4844C8.75 26.4844 8.98437 26.4063 9.29687 26.3281V33.5156C4.6875 35.3125 2.1875 37.7344 2.1875 40.4688C2.1875 45.7812 12.2656 50 25.0781 50C37.8906 50 47.9688 45.7812 47.9688 40.4688C47.8906 37.6562 45.3125 35.2344 40.7031 33.4375ZM32.5 11.4844H39.375C41.0156 11.4844 42.4219 12.9688 42.4219 14.8438V23.8281C42.4219 24.375 42.0312 24.7656 41.5625 24.7656C41.3281 24.7656 41.0937 24.6094 41.0156 24.5312C40.8594 24.375 40.7812 24.0625 40.7812 23.8281V17.9688C40.7812 17.5781 40.4688 17.1875 40 17.1875C39.6094 17.1875 39.2188 17.5 39.2188 17.9688V37.0313C39.2188 37.8125 38.6719 38.4375 37.9687 38.4375C37.2656 38.4375 36.7187 37.8125 36.7187 37.0313V26.4844C36.7187 26.0938 36.4062 25.7031 35.9375 25.7031C35.5469 25.7031 35.1562 26.0156 35.1562 26.4844V36.9531C35.1562 37.7344 34.6094 38.3594 33.9062 38.3594C33.5156 38.3594 33.2031 38.125 33.0469 37.9688C32.8125 37.6562 32.6562 37.3438 32.6562 36.9531V29.1406C33.4375 28.6719 33.9844 27.8125 33.9844 26.7969V16.6406C33.9844 14.5312 32.8906 12.7344 31.25 11.7969C31.6406 11.5625 32.1094 11.4844 32.5 11.4844ZM21.1719 12.7344H28.9062C30.8594 12.7344 32.4219 14.4531 32.4219 16.6406V26.7969C32.4219 27.4219 31.9531 27.9688 31.4062 27.9688C30.8594 27.9688 30.3906 27.4219 30.3906 26.7969V20.1562C30.3906 19.7656 30.0781 19.375 29.6094 19.375C29.2188 19.375 28.8281 19.6875 28.8281 20.1562V41.6406C28.8281 42.5781 28.125 43.3594 27.3437 43.3594C26.5625 43.3594 25.8594 42.5781 25.8594 41.6406V29.7656C25.8594 29.375 25.5469 28.9844 25.0781 28.9844C24.6875 28.9844 24.2969 29.2969 24.2969 29.7656V41.5625C24.2969 42.5 23.5938 43.2813 22.8125 43.2813C22.0312 43.2813 21.3281 42.5 21.3281 41.5625V20.0781C21.3281 19.6875 21.0156 19.2969 20.5469 19.2969C20.1562 19.2969 19.7656 19.6094 19.7656 20.0781V26.7188C19.7656 27.3438 19.2969 27.8906 18.75 27.8906C18.2031 27.8906 17.7344 27.3438 17.7344 26.7188V16.5625C17.6562 14.4531 19.2969 12.7344 21.1719 12.7344ZM9.21875 23.9062C9.21875 24.4531 8.82812 24.8438 8.35937 24.8438C8.125 24.8438 7.96875 24.7656 7.8125 24.6094C7.65625 24.4531 7.57812 24.1406 7.57812 23.9062V14.8438C7.57812 12.9688 8.90625 11.4844 10.625 11.4844H17.4219C17.8906 11.4844 18.3594 11.6406 18.75 11.7969C17.1875 12.7344 16.0938 14.5312 16.0938 16.5625V26.7188C16.0938 27.6563 16.5625 28.5156 17.2656 28.9844V36.9531C17.2656 37.7344 16.7187 38.3594 16.0156 38.3594C15.7031 38.3594 15.3906 38.2031 15.1562 37.9688C14.9219 37.7344 14.7656 37.3438 14.7656 36.9531V26.4844C14.7656 26.0938 14.4531 25.7031 13.9844 25.7031C13.5937 25.7031 13.2031 26.0156 13.2031 26.4844V36.9531C13.2031 37.7344 12.6562 38.3594 11.9531 38.3594C11.25 38.3594 10.7031 37.7344 10.7031 36.9531V17.9688C10.7031 17.5781 10.3906 17.1875 9.92187 17.1875C9.53125 17.1875 9.14062 17.5 9.14062 17.9688L9.21875 23.9062ZM25 48.3594C12.2656 48.3594 3.67187 44.2188 3.67187 40.3906C3.67187 38.5156 5.70312 36.5625 9.21875 35.0781V36.9531C9.21875 38.5938 10.4687 39.9219 12.0312 39.9219C12.8125 39.9219 13.5156 39.5313 14.0625 38.9844C14.6094 39.5313 15.3125 39.8438 16.0938 39.8438C17.6562 39.8438 18.9062 38.5156 18.9062 36.875V29.375C19.2188 29.375 19.5312 29.2969 19.7656 29.1406V41.4062C19.7656 43.2031 21.1719 44.6875 22.8125 44.6875C23.75 44.6875 24.5312 44.2188 25.0781 43.5938C25.625 44.2969 26.4062 44.6875 27.3437 44.6875C28.9844 44.6875 30.3906 43.2031 30.3906 41.4844V29.2969C30.625 29.375 30.8594 29.4531 31.1719 29.5312V37.0313C31.1719 37.8125 31.4844 38.5156 31.9531 39.1406C32.5 39.6875 33.2031 40 33.9844 40C34.7656 40 35.4687 39.6094 36.0156 39.0625C36.5625 39.6094 37.2656 40 38.0469 40C39.6094 40 40.8594 38.6719 40.8594 37.0313V35.1562C44.4531 36.6406 46.4844 38.5156 46.4844 40.4688C46.3281 44.2188 37.7344 48.3594 25 48.3594Z" fill="#E5313F"/>
</svg>
