<svg width="50" height="50" viewBox="0 0 50 50" fill="none" xmlns="http://www.w3.org/2000/svg">
<path d="M39.5001 24.8335C39.5001 25.5002 40.0001 26.1668 40.8334 26.1668C41.6668 26.1668 42.1668 25.6668 42.1668 24.8335C42.1668 15.6668 34.6667 8.16683 25.5001 8.16683C24.8334 8.16683 24.1667 8.66683 24.1667 9.50016C24.1667 10.3335 24.6667 10.8335 25.5001 10.8335C33.1667 10.6668 39.5001 17.0002 39.5001 24.8335ZM24.1667 16.1668C24.1667 16.8335 24.6667 17.5002 25.5001 17.5002C29.5001 17.5002 32.6668 20.6668 32.6668 24.6668C32.6668 25.3335 33.1668 26.0002 34.0001 26.0002C34.8334 26.0002 35.3334 25.5002 35.3334 24.6668C35.3334 19.3335 31.0001 15.0002 25.6667 15.0002C24.6667 15.0002 24.1667 15.5002 24.1667 16.1668ZM25.3334 0.333496C24.6667 0.333496 24.0001 0.833496 24.0001 1.66683C24.0001 2.50016 24.5001 3.00016 25.3334 3.00016C37.3334 3.00016 47.1668 12.8335 47.1668 24.8335C47.1668 25.5002 47.6668 26.1668 48.5001 26.1668C49.3334 26.1668 49.8334 25.6668 49.8334 24.8335C49.6668 11.3335 38.8334 0.333496 25.3334 0.333496ZM32.3334 29.5002C32.1667 29.3335 31.8334 29.1668 31.5001 29.1668C31.1667 29.1668 30.8334 29.3335 30.6667 29.5002L28.0001 32.1668C27.0001 33.1668 25.3334 33.1668 24.3334 32.1668L18.1667 26.5002C17.1667 25.5002 17.1667 23.8335 18.1667 22.8335L21.1667 19.8335C21.6667 19.3335 21.6667 18.5002 21.1667 18.0002L8.83342 5.8335C8.66675 5.66683 8.33342 5.50016 8.00008 5.50016C7.66675 5.50016 7.33342 5.66683 7.16675 5.8335C7.00008 6.00016 3.16675 9.8335 2.33341 10.8335C8.14497e-05 13.1668 -0.333252 18.0002 1.33341 22.1668C5.00008 31.3335 17.1667 42.5002 27.3334 48.6668C28.1667 49.1668 30.1667 49.6668 32.1667 49.6668C34.0001 49.6668 36.6668 49.3335 39.0001 47.3335C41.1668 45.5002 43.6668 42.8335 43.8334 42.6668C44.3334 42.1668 44.3334 41.3335 43.8334 41.0002L32.3334 29.5002ZM37.3334 45.3335C35.6668 46.8335 33.6667 47.0002 32.1667 47.0002C30.3334 47.0002 28.8334 46.5002 28.6668 46.3335C17.1668 39.5002 6.66675 29.0002 3.66675 21.1668C2.33342 17.6668 2.83342 13.8335 4.00008 12.5002C4.66675 11.8335 6.66675 9.8335 8.00008 8.50016L18.3334 18.8335L16.1667 21.0002C14.1667 23.0002 14.1667 26.1668 16.1667 28.1668L22.3334 33.8335C24.1667 35.6668 27.5001 35.6668 29.5001 33.8335L31.3334 32.0002L41.0001 41.6668C40.1668 42.8335 38.6668 44.3335 37.3334 45.3335Z" fill="#E5313F"/>
</svg>
