<svg width="20" height="20" viewBox="0 0 20 20" fill="none" xmlns="http://www.w3.org/2000/svg">
<path d="M16.0492 8.33154C16.0699 5.98164 14.0668 3.82843 11.5875 3.52823C11.5358 3.52305 11.484 3.5127 11.4271 3.50235C11.3029 3.48164 11.1786 3.46094 11.0492 3.46094C10.542 3.46094 10.4074 3.81808 10.3712 4.0303C10.3349 4.23733 10.3712 4.41332 10.4695 4.54789C10.6403 4.77564 10.9354 4.81705 11.1735 4.8481C11.2407 4.85845 11.308 4.8688 11.365 4.87916C13.5906 5.37605 14.3411 6.15762 14.7086 8.36777C14.719 8.41953 14.7242 8.48682 14.7242 8.55928C14.7397 8.82326 14.7759 9.37191 15.366 9.37191C15.4126 9.37191 15.4695 9.36673 15.5213 9.36156C16.0699 9.27874 16.0544 8.77667 16.044 8.5334C16.044 8.46611 16.0389 8.39883 16.044 8.35742C16.0492 8.35224 16.0492 8.34189 16.0492 8.33154Z" fill="#0DC143"/>
<path d="M10.9097 2.6689C10.977 2.67408 11.0391 2.67925 11.0909 2.68443C14.7451 3.24861 16.4273 4.98257 16.8983 8.66787C16.9087 8.72999 16.9087 8.80763 16.9087 8.89044C16.9139 9.1803 16.9242 9.77554 17.566 9.79106H17.5867C17.7886 9.79106 17.9491 9.72895 18.0629 9.6099C18.2648 9.40286 18.2493 9.08713 18.2389 8.83868C18.2337 8.77657 18.2337 8.71963 18.2337 8.66787C18.2803 4.89458 15.0143 1.47842 11.2462 1.34902C11.2306 1.34902 11.2151 1.34902 11.1996 1.34902C11.1944 1.34902 11.1789 1.34902 11.153 1.34902C11.1168 1.34902 11.0702 1.34385 11.0184 1.34385C10.9615 1.33867 10.8942 1.3335 10.8217 1.3335C10.2213 1.3335 10.1074 1.75793 10.0919 2.01673C10.066 2.60679 10.6354 2.6482 10.9097 2.6689Z" fill="#0DC143"/>
<path d="M16.7171 13.4351C16.6395 13.3782 16.5567 13.3161 16.4842 13.254C16.0856 12.9331 15.6612 12.638 15.2471 12.3482C15.1643 12.2912 15.0763 12.2291 14.9935 12.1722C14.4656 11.8047 13.9946 11.6235 13.5442 11.6235C12.9438 11.6235 12.4159 11.9548 11.9811 12.6121C11.7896 12.902 11.5567 13.0469 11.2668 13.0469C11.096 13.0469 10.9045 13.0003 10.6923 12.902C8.99455 12.1308 7.7782 10.9507 7.08461 9.38751C6.74818 8.63182 6.85687 8.1401 7.44693 7.74155C7.78337 7.5138 8.40449 7.08937 8.36308 6.27674C8.31132 5.35542 6.28234 2.58627 5.42312 2.27053C5.06081 2.13596 4.67778 2.13596 4.28958 2.26536C3.30615 2.59662 2.59704 3.17633 2.24507 3.94755C1.90346 4.68772 1.91898 5.56246 2.29166 6.46826C3.35791 9.09248 4.86412 11.3751 6.75335 13.2643C8.60635 15.1121 10.8838 16.6235 13.5235 17.7622C13.7616 17.8658 14.0101 17.9227 14.1912 17.9589C14.2534 17.9745 14.3051 17.9848 14.3465 17.9952C14.3672 18.0003 14.3879 18.0055 14.4138 18.0055H14.4345C15.6767 18.0055 17.1674 16.872 17.6229 15.578C18.0422 14.4444 17.3072 13.8854 16.7171 13.4351Z" fill="#0DC143"/>
<path d="M11.458 5.66562C11.2458 5.6708 10.8007 5.68115 10.6454 6.13146C10.5729 6.34368 10.5833 6.52484 10.6713 6.67494C10.8007 6.89751 11.0543 6.96479 11.2872 7.00103C12.1206 7.1356 12.5502 7.59626 12.633 8.4503C12.6744 8.84885 12.9435 9.12836 13.2852 9.12836C13.311 9.12836 13.3369 9.12836 13.3628 9.12318C13.7769 9.07142 13.9787 8.77121 13.958 8.21738C13.9632 7.64285 13.663 6.99067 13.1506 6.4679C12.6382 5.94513 12.0222 5.65009 11.458 5.66562Z" fill="#0DC143"/>
</svg>
