<svg width="24" height="24" viewBox="0 0 24 24" fill="none" xmlns="http://www.w3.org/2000/svg">
<path d="M17.584 13.2131C17.5415 13.1919 15.9653 12.4171 15.6893 12.3162C15.5726 12.2738 15.4505 12.2366 15.3231 12.2366C15.1108 12.2366 14.9304 12.3428 14.7924 12.5498C14.6332 12.7833 14.1609 13.3405 14.0123 13.505C13.991 13.5263 13.9645 13.5528 13.9486 13.5528C13.9327 13.5528 13.6885 13.452 13.6195 13.4201C11.9319 12.6877 10.6475 10.9205 10.4724 10.6233C10.4459 10.5808 10.4459 10.5596 10.4459 10.5596C10.4512 10.5384 10.5096 10.48 10.5361 10.4481C10.621 10.3632 10.7165 10.2518 10.8068 10.1456C10.8492 10.0926 10.8917 10.0448 10.9341 9.99703C11.0668 9.84312 11.1252 9.72637 11.1889 9.58838L11.226 9.51939C11.3905 9.19035 11.2526 8.91968 11.2048 8.82946C11.1676 8.75516 10.5043 7.15241 10.43 6.98258C10.2601 6.57393 10.0372 6.38818 9.72411 6.38818C9.69757 6.38818 9.72411 6.38818 9.60204 6.39349C9.45344 6.3988 8.64676 6.50494 8.29118 6.72784C7.91438 6.96666 7.27222 7.72558 7.27222 9.05767C7.27222 10.2571 8.03644 11.3928 8.36018 11.8227C8.37079 11.8333 8.3814 11.8545 8.40263 11.8864C9.65511 13.7173 11.2207 15.0759 12.8022 15.7075C14.3254 16.3178 15.0471 16.3868 15.4611 16.3868C15.6362 16.3868 15.7742 16.3709 15.891 16.3603L15.9706 16.355C16.496 16.3072 17.6529 15.7075 17.9183 14.9751C18.1253 14.3966 18.1783 13.7704 18.0404 13.5422C17.9501 13.3883 17.7856 13.3087 17.584 13.2131Z" fill="#715DF0"/>
<path d="M12.5895 0.799805C6.7411 0.799805 1.98062 5.52315 1.98062 11.3291C1.98062 13.2079 2.48479 15.0441 3.43477 16.6522L1.61443 22.0283C1.58258 22.1291 1.60381 22.2406 1.67811 22.3149C1.73118 22.368 1.80548 22.3998 1.87978 22.3998C1.90632 22.3998 1.93816 22.3945 1.9647 22.3892L7.56901 20.606C9.10277 21.4233 10.8382 21.8585 12.5895 21.8585C18.438 21.8585 23.1985 17.1351 23.1985 11.3291C23.1985 5.52315 18.438 0.799805 12.5895 0.799805ZM12.5895 19.6666C10.939 19.6666 9.34159 19.189 7.96705 18.2868C7.91928 18.2549 7.86621 18.239 7.81314 18.239C7.78661 18.239 7.75476 18.2443 7.72823 18.2496L4.92076 19.1412L5.82828 16.4664C5.86012 16.3815 5.8442 16.286 5.79113 16.2117C4.74563 14.7841 4.19369 13.0911 4.19369 11.3238C4.19369 6.72786 7.96174 2.98634 12.5949 2.98634C17.228 2.98634 20.996 6.72786 20.996 11.3238C20.9907 15.9251 17.2227 19.6666 12.5895 19.6666Z" fill="#715DF0"/>
</svg>
